<?xml version="1.0" encoding="UTF-8"?>
<svg xmlns="http://www.w3.org/2000/svg" xmlns:xlink="http://www.w3.org/1999/xlink" width="500" height="500" viewBox="0 0 500 500">
<rect x="-50" y="-50" width="600" height="600" fill="rgb(100%, 100%, 100%)" fill-opacity="1"/>
<path fill-rule="evenodd" fill="rgb(50%, 50%, 50%)" fill-opacity="1" stroke-width="0.5" stroke-linecap="butt" stroke-linejoin="miter" stroke="rgb(0%, 0%, 0%)" stroke-opacity="1" stroke-miterlimit="10" d="M 500 250 C 500 388.070312 388.070312 500 250 500 C 111.929688 500 0 388.070312 0 250 C 0 111.929688 111.929688 0 250 0 C 388.070312 0 500 111.929688 500 250 M 411.378906 261.167969 L 413.578125 261.359375 L 413.882812 257.839844 C 414.015625 256.320312 415.289062 255.152344 416.8125 255.152344 L 462.707031 255.152344 C 463.566406 255.152344 464.246094 255.894531 464.171875 256.753906 L 462.089844 280.539062 C 462.015625 281.398438 461.21875 282.011719 460.367188 281.859375 L 415.175781 273.890625 C 413.671875 273.625 412.621094 272.257812 412.753906 270.738281 L 413.0625 267.21875 L 410.867188 267.027344 C 410.082031 274.4375 408.785156 281.785156 406.988281 289.019531 L 409.117188 289.589844 L 410.035156 286.179688 C 410.429688 284.703125 411.882812 283.777344 413.386719 284.042969 L 458.578125 292.011719 C 459.429688 292.160156 459.96875 293.007812 459.742188 293.839844 L 453.5625 316.90625 C 453.339844 317.738281 452.449219 318.203125 451.640625 317.90625 L 408.515625 302.210938 C 407.082031 301.6875 406.289062 300.160156 406.683594 298.6875 L 407.597656 295.273438 L 405.464844 294.703125 C 403.40625 301.863281 400.855469 308.875 397.828125 315.6875 L 399.828125 316.621094 L 401.320312 313.417969 C 401.964844 312.035156 403.558594 311.375 404.992188 311.898438 L 448.113281 327.59375 C 448.925781 327.886719 449.308594 328.8125 448.945312 329.597656 L 438.851562 351.238281 C 438.488281 352.019531 437.53125 352.320312 436.785156 351.890625 L 397.042969 328.945312 C 395.722656 328.179688 395.203125 326.535156 395.847656 325.152344 L 397.339844 321.953125 L 395.339844 321.019531 C 392.070312 327.714844 388.339844 334.179688 384.175781 340.359375 L 385.980469 341.625 L 388.007812 338.730469 C 388.882812 337.480469 390.566406 337.109375 391.886719 337.871094 L 431.632812 360.816406 C 432.378906 361.246094 432.59375 362.226562 432.101562 362.933594 L 418.40625 382.492188 C 417.910156 383.199219 416.914062 383.332031 416.253906 382.777344 L 381.101562 353.277344 C 379.933594 352.296875 379.707031 350.585938 380.582031 349.339844 L 382.609375 346.445312 L 380.800781 345.179688 C 376.414062 351.203125 371.621094 356.921875 366.445312 362.285156 L 368.003906 363.847656 L 370.503906 361.347656 C 371.582031 360.269531 373.304688 360.195312 374.472656 361.175781 L 409.628906 390.671875 C 410.289062 391.226562 410.332031 392.230469 409.722656 392.839844 L 392.839844 409.722656 C 392.230469 410.332031 391.226562 410.289062 390.671875 409.628906 L 361.175781 374.472656 C 360.195312 373.304688 360.269531 371.582031 361.347656 370.503906 L 363.847656 368.003906 L 362.285156 366.445312 C 356.921875 371.621094 351.203125 376.414062 345.179688 380.800781 L 346.445312 382.609375 L 349.339844 380.582031 C 350.585938 379.707031 352.296875 379.933594 353.277344 381.101562 L 382.777344 416.253906 C 383.332031 416.914062 383.199219 417.910156 382.492188 418.40625 L 362.933594 432.101562 C 362.226562 432.59375 361.246094 432.378906 360.816406 431.632812 L 337.871094 391.886719 C 337.109375 390.566406 337.480469 388.882812 338.730469 388.007812 L 341.625 385.980469 L 340.359375 384.175781 C 334.179688 388.339844 327.714844 392.070312 321.019531 395.339844 L 321.953125 397.339844 L 325.152344 395.847656 C 326.535156 395.203125 328.179688 395.722656 328.945312 397.042969 L 351.890625 436.785156 C 352.320312 437.53125 352.019531 438.488281 351.238281 438.851562 L 329.597656 448.945312 C 328.8125 449.308594 327.886719 448.925781 327.59375 448.113281 L 311.898438 404.992188 C 311.375 403.558594 312.035156 401.964844 313.417969 401.320312 L 316.621094 399.828125 L 315.6875 397.828125 C 308.875 400.855469 301.863281 403.40625 294.703125 405.464844 L 295.273438 407.597656 L 298.6875 406.683594 C 300.160156 406.289062 301.6875 407.082031 302.210938 408.515625 L 317.90625 451.640625 C 318.203125 452.449219 317.738281 453.339844 316.90625 453.5625 L 293.839844 459.742188 C 293.007812 459.96875 292.160156 459.429688 292.011719 458.578125 L 284.042969 413.386719 C 283.777344 411.882812 284.703125 410.429688 286.179688 410.035156 L 289.589844 409.117188 L 289.019531 406.988281 C 281.785156 408.785156 274.4375 410.082031 267.027344 410.867188 L 267.21875 413.0625 L 270.738281 412.753906 C 272.257812 412.621094 273.625 413.671875 273.890625 415.175781 L 281.859375 460.367188 C 282.011719 461.21875 281.398438 462.015625 280.539062 462.089844 L 256.753906 464.171875 C 255.894531 464.246094 255.152344 463.566406 255.152344 462.707031 L 255.152344 416.8125 C 255.152344 415.289062 256.320312 414.015625 257.839844 413.882812 L 261.359375 413.578125 L 261.167969 411.378906 C 253.730469 411.894531 246.269531 411.894531 238.832031 411.378906 L 238.640625 413.578125 L 242.160156 413.882812 C 243.679688 414.015625 244.847656 415.289062 244.847656 416.8125 L 244.847656 462.707031 C 244.847656 463.566406 244.105469 464.246094 243.246094 464.171875 L 219.460938 462.089844 C 218.601562 462.015625 217.988281 461.21875 218.140625 460.367188 L 226.109375 415.175781 C 226.375 413.671875 227.742188 412.621094 229.261719 412.753906 L 232.78125 413.0625 L 232.972656 410.867188 C 225.5625 410.082031 218.214844 408.785156 210.980469 406.988281 L 210.410156 409.117188 L 213.820312 410.035156 C 215.296875 410.429688 216.222656 411.882812 215.957031 413.386719 L 207.988281 458.578125 C 207.839844 459.429688 206.992188 459.96875 206.160156 459.742188 L 183.09375 453.5625 C 182.261719 453.339844 181.796875 452.449219 182.09375 451.640625 L 197.789062 408.515625 C 198.3125 407.082031 199.839844 406.289062 201.3125 406.683594 L 204.726562 407.597656 L 205.296875 405.464844 C 198.136719 403.40625 191.125 400.855469 184.3125 397.828125 L 183.378906 399.828125 L 186.582031 401.320312 C 187.964844 401.964844 188.625 403.558594 188.101562 404.992188 L 172.40625 448.113281 C 172.113281 448.925781 171.1875 449.308594 170.402344 448.945312 L 148.761719 438.851562 C 147.980469 438.488281 147.679688 437.53125 148.109375 436.785156 L 171.054688 397.042969 C 171.820312 395.722656 173.464844 395.203125 174.847656 395.847656 L 178.046875 397.339844 L 178.980469 395.339844 C 172.285156 392.070312 165.820312 388.339844 159.640625 384.175781 L 158.375 385.980469 L 161.269531 388.007812 C 162.519531 388.882812 162.890625 390.566406 162.128906 391.886719 L 139.183594 431.632812 C 138.753906 432.378906 137.773438 432.59375 137.066406 432.101562 L 117.507812 418.40625 C 116.800781 417.910156 116.667969 416.914062 117.222656 416.253906 L 146.722656 381.101562 C 147.703125 379.933594 149.414062 379.707031 150.660156 380.582031 L 153.554688 382.609375 L 154.820312 380.800781 C 148.796875 376.414062 143.078125 371.621094 137.714844 366.445312 L 136.152344 368.003906 L 138.652344 370.503906 C 139.730469 371.582031 139.804688 373.304688 138.824219 374.472656 L 109.328125 409.628906 C 108.773438 410.289062 107.769531 410.332031 107.160156 409.722656 L 90.277344 392.839844 C 89.667969 392.230469 89.710938 391.226562 90.371094 390.671875 L 125.527344 361.175781 C 126.695312 360.195312 128.417969 360.269531 129.496094 361.347656 L 131.996094 363.847656 L 133.554688 362.285156 C 128.378906 356.921875 123.585938 351.203125 119.199219 345.179688 L 117.390625 346.445312 L 119.417969 349.339844 C 120.292969 350.585938 120.066406 352.296875 118.898438 353.277344 L 83.746094 382.777344 C 83.085938 383.332031 82.089844 383.199219 81.59375 382.492188 L 67.898438 362.933594 C 67.40625 362.226562 67.621094 361.246094 68.367188 360.816406 L 108.113281 337.871094 C 109.433594 337.109375 111.117188 337.480469 111.992188 338.730469 L 114.019531 341.625 L 115.824219 340.359375 C 111.660156 334.179688 107.929688 327.714844 104.660156 321.019531 L 102.660156 321.953125 L 104.152344 325.152344 C 104.796875 326.535156 104.277344 328.179688 102.957031 328.945312 L 63.214844 351.890625 C 62.46875 352.320312 61.511719 352.019531 61.148438 351.238281 L 51.054688 329.597656 C 50.691406 328.8125 51.074219 327.886719 51.886719 327.59375 L 95.007812 311.898438 C 96.441406 311.375 98.035156 312.035156 98.679688 313.417969 L 100.171875 316.621094 L 102.171875 315.6875 C 99.144531 308.875 96.59375 301.863281 94.535156 294.703125 L 92.402344 295.273438 L 93.316406 298.6875 C 93.710938 300.160156 92.917969 301.6875 91.484375 302.210938 L 48.359375 317.90625 C 47.550781 318.203125 46.660156 317.738281 46.4375 316.90625 L 40.257812 293.839844 C 40.03125 293.007812 40.570312 292.160156 41.421875 292.011719 L 86.613281 284.042969 C 88.117188 283.777344 89.570312 284.703125 89.964844 286.179688 L 90.882812 289.589844 L 93.011719 289.019531 C 91.214844 281.785156 89.917969 274.4375 89.132812 267.027344 L 86.9375 267.21875 L 87.246094 270.738281 C 87.378906 272.257812 86.328125 273.625 84.824219 273.890625 L 39.632812 281.859375 C 38.78125 282.011719 37.984375 281.398438 37.910156 280.539062 L 35.828125 256.753906 C 35.753906 255.894531 36.433594 255.152344 37.292969 255.152344 L 83.1875 255.152344 C 84.710938 255.152344 85.984375 256.320312 86.117188 257.839844 L 86.421875 261.359375 L 88.621094 261.167969 C 88.105469 253.730469 88.105469 246.269531 88.621094 238.832031 L 86.421875 238.640625 L 86.117188 242.160156 C 85.984375 243.679688 84.710938 244.847656 83.1875 244.847656 L 37.292969 244.847656 C 36.433594 244.847656 35.753906 244.105469 35.828125 243.246094 L 37.910156 219.460938 C 37.984375 218.601562 38.78125 217.988281 39.632812 218.140625 L 84.824219 226.109375 C 86.328125 226.375 87.378906 227.742188 87.246094 229.261719 L 86.9375 232.78125 L 89.132812 232.972656 C 89.917969 225.5625 91.214844 218.214844 93.011719 210.980469 L 90.882812 210.410156 L 89.964844 213.820312 C 89.570312 215.296875 88.117188 216.222656 86.613281 215.957031 L 41.421875 207.988281 C 40.570312 207.839844 40.03125 206.992188 40.257812 206.160156 L 46.4375 183.09375 C 46.660156 182.261719 47.550781 181.796875 48.359375 182.09375 L 91.484375 197.789062 C 92.917969 198.3125 93.710938 199.839844 93.316406 201.3125 L 92.402344 204.726562 L 94.535156 205.296875 C 96.59375 198.136719 99.144531 191.125 102.171875 184.3125 L 100.171875 183.378906 L 98.679688 186.582031 C 98.035156 187.964844 96.441406 188.625 95.007812 188.101562 L 51.886719 172.40625 C 51.074219 172.113281 50.691406 171.1875 51.054688 170.402344 L 61.148438 148.761719 C 61.511719 147.980469 62.46875 147.679688 63.214844 148.109375 L 102.957031 171.054688 C 104.277344 171.820312 104.796875 173.464844 104.152344 174.847656 L 102.660156 178.046875 L 104.660156 178.980469 C 107.929688 172.285156 111.660156 165.820312 115.824219 159.640625 L 114.019531 158.375 L 111.992188 161.269531 C 111.117188 162.519531 109.433594 162.890625 108.113281 162.128906 L 68.367188 139.183594 C 67.621094 138.753906 67.40625 137.773438 67.898438 137.066406 L 81.59375 117.507812 C 82.089844 116.800781 83.085938 116.667969 83.746094 117.222656 L 118.898438 146.722656 C 120.066406 147.703125 120.292969 149.414062 119.417969 150.660156 L 117.390625 153.554688 L 119.199219 154.820312 C 123.585938 148.796875 128.378906 143.078125 133.554688 137.714844 L 131.996094 136.152344 L 129.496094 138.652344 C 128.417969 139.730469 126.695312 139.804688 125.527344 138.824219 L 90.371094 109.328125 C 89.710938 108.773438 89.667969 107.769531 90.277344 107.160156 L 107.160156 90.277344 C 107.769531 89.667969 108.773438 89.710938 109.328125 90.371094 L 138.824219 125.527344 C 139.804688 126.695312 139.730469 128.417969 138.652344 129.496094 L 136.152344 131.996094 L 137.714844 133.554688 C 143.078125 128.378906 148.796875 123.585938 154.820312 119.199219 L 153.554688 117.390625 L 150.660156 119.417969 C 149.414062 120.292969 147.703125 120.066406 146.722656 118.898438 L 117.222656 83.746094 C 116.667969 83.085938 116.800781 82.089844 117.507812 81.59375 L 137.066406 67.898438 C 137.773438 67.40625 138.753906 67.621094 139.183594 68.367188 L 162.128906 108.113281 C 162.890625 109.433594 162.519531 111.117188 161.269531 111.992188 L 158.375 114.019531 L 159.640625 115.824219 C 165.820312 111.660156 172.285156 107.929688 178.980469 104.660156 L 178.046875 102.660156 L 174.847656 104.152344 C 173.464844 104.796875 171.820312 104.277344 171.054688 102.957031 L 148.109375 63.214844 C 147.679688 62.46875 147.980469 61.511719 148.761719 61.148438 L 170.402344 51.054688 C 171.1875 50.691406 172.113281 51.074219 172.40625 51.886719 L 188.101562 95.007812 C 188.625 96.441406 187.964844 98.035156 186.582031 98.679688 L 183.378906 100.171875 L 184.3125 102.171875 C 191.125 99.144531 198.136719 96.59375 205.296875 94.535156 L 204.726562 92.402344 L 201.3125 93.316406 C 199.839844 93.710938 198.3125 92.917969 197.789062 91.484375 L 182.09375 48.359375 C 181.796875 47.550781 182.261719 46.660156 183.09375 46.4375 L 206.160156 40.257812 C 206.992188 40.03125 207.839844 40.570312 207.988281 41.421875 L 215.957031 86.613281 C 216.222656 88.117188 215.296875 89.570312 213.820312 89.964844 L 210.410156 90.882812 L 210.980469 93.011719 C 218.214844 91.214844 225.5625 89.917969 232.972656 89.132812 L 232.78125 86.9375 L 229.261719 87.246094 C 227.742188 87.378906 226.375 86.328125 226.109375 84.824219 L 218.140625 39.632812 C 217.988281 38.78125 218.601562 37.984375 219.460938 37.910156 L 243.246094 35.828125 C 244.105469 35.753906 244.847656 36.433594 244.847656 37.292969 L 244.847656 83.1875 C 244.847656 84.710938 243.679688 85.984375 242.160156 86.117188 L 238.640625 86.421875 L 238.832031 88.621094 C 246.269531 88.105469 253.730469 88.105469 261.167969 88.621094 L 261.359375 86.421875 L 257.839844 86.117188 C 256.320312 85.984375 255.152344 84.710938 255.152344 83.1875 L 255.152344 37.292969 C 255.152344 36.433594 255.894531 35.753906 256.753906 35.828125 L 280.539062 37.910156 C 281.398438 37.984375 282.011719 38.78125 281.859375 39.632812 L 273.890625 84.824219 C 273.625 86.328125 272.257812 87.378906 270.738281 87.246094 L 267.21875 86.9375 L 267.027344 89.132812 C 274.4375 89.917969 281.785156 91.214844 289.019531 93.011719 L 289.589844 90.882812 L 286.179688 89.964844 C 284.703125 89.570312 283.777344 88.117188 284.042969 86.613281 L 292.011719 41.421875 C 292.160156 40.570312 293.007812 40.03125 293.839844 40.257812 L 316.90625 46.4375 C 317.738281 46.660156 318.203125 47.550781 317.90625 48.359375 L 302.210938 91.484375 C 301.6875 92.917969 300.160156 93.710938 298.6875 93.316406 L 295.273438 92.402344 L 294.703125 94.535156 C 301.863281 96.59375 308.875 99.144531 315.6875 102.171875 L 316.621094 100.171875 L 313.417969 98.679688 C 312.035156 98.035156 311.375 96.441406 311.898438 95.007812 L 327.59375 51.886719 C 327.886719 51.074219 328.8125 50.691406 329.597656 51.054688 L 351.238281 61.148438 C 352.019531 61.511719 352.320312 62.46875 351.890625 63.214844 L 328.945312 102.957031 C 328.179688 104.277344 326.535156 104.796875 325.152344 104.152344 L 321.953125 102.660156 L 321.019531 104.660156 C 327.714844 107.929688 334.179688 111.660156 340.359375 115.824219 L 341.625 114.019531 L 338.730469 111.992188 C 337.480469 111.117188 337.109375 109.433594 337.871094 108.113281 L 360.816406 68.367188 C 361.246094 67.621094 362.226562 67.40625 362.933594 67.898438 L 382.492188 81.59375 C 383.199219 82.089844 383.332031 83.085938 382.777344 83.746094 L 353.277344 118.898438 C 352.296875 120.066406 350.585938 120.292969 349.339844 119.417969 L 346.445312 117.390625 L 345.179688 119.199219 C 351.203125 123.585938 356.921875 128.378906 362.285156 133.554688 L 363.847656 131.996094 L 361.347656 129.496094 C 360.269531 128.417969 360.195312 126.695312 361.175781 125.527344 L 390.671875 90.371094 C 391.226562 89.710938 392.230469 89.667969 392.839844 90.277344 L 409.722656 107.160156 C 410.332031 107.769531 410.289062 108.773438 409.628906 109.328125 L 374.472656 138.824219 C 373.304688 139.804688 371.582031 139.730469 370.503906 138.652344 L 368.003906 136.152344 L 366.445312 137.714844 C 371.621094 143.078125 376.414062 148.796875 380.800781 154.820312 L 382.609375 153.554688 L 380.582031 150.660156 C 379.707031 149.414062 379.933594 147.703125 381.101562 146.722656 L 416.253906 117.222656 C 416.914062 116.667969 417.910156 116.800781 418.40625 117.507812 L 432.101562 137.066406 C 432.59375 137.773438 432.378906 138.753906 431.632812 139.183594 L 391.886719 162.128906 C 390.566406 162.890625 388.882812 162.519531 388.007812 161.269531 L 385.980469 158.375 L 384.175781 159.640625 C 388.339844 165.820312 392.070312 172.285156 395.339844 178.980469 L 397.339844 178.046875 L 395.847656 174.847656 C 395.203125 173.464844 395.722656 171.820312 397.042969 171.054688 L 436.785156 148.109375 C 437.53125 147.679688 438.488281 147.980469 438.851562 148.761719 L 448.945312 170.402344 C 449.308594 171.1875 448.925781 172.113281 448.113281 172.40625 L 404.992188 188.101562 C 403.558594 188.625 401.964844 187.964844 401.320312 186.582031 L 399.828125 183.378906 L 397.828125 184.3125 C 400.855469 191.125 403.40625 198.136719 405.464844 205.296875 L 407.597656 204.726562 L 406.683594 201.3125 C 406.289062 199.839844 407.082031 198.3125 408.515625 197.789062 L 451.640625 182.09375 C 452.449219 181.796875 453.339844 182.261719 453.5625 183.09375 L 459.742188 206.160156 C 459.96875 206.992188 459.429688 207.839844 458.578125 207.988281 L 413.386719 215.957031 C 411.882812 216.222656 410.429688 215.296875 410.035156 213.820312 L 409.117188 210.410156 L 406.988281 210.980469 C 408.785156 218.214844 410.082031 225.5625 410.867188 232.972656 L 413.0625 232.78125 L 412.753906 229.261719 C 412.621094 227.742188 413.671875 226.375 415.175781 226.109375 L 460.367188 218.140625 C 461.21875 217.988281 462.015625 218.601562 462.089844 219.460938 L 464.171875 243.246094 C 464.246094 244.105469 463.566406 244.847656 462.707031 244.847656 L 416.8125 244.847656 C 415.289062 244.847656 414.015625 243.679688 413.882812 242.160156 L 413.578125 238.640625 L 411.378906 238.832031 C 411.894531 246.269531 411.894531 253.730469 411.378906 261.167969 "/>
<path fill-rule="evenodd" fill="rgb(22.352941%, 52.941176%, 97.647059%)" fill-opacity="1" stroke-width="0.5" stroke-linecap="butt" stroke-linejoin="miter" stroke="rgb(0%, 0%, 0%)" stroke-opacity="1" stroke-miterlimit="10" d="M 413.0625 267.21875 L 412.753906 270.738281 C 412.621094 272.257812 413.671875 273.625 415.175781 273.890625 L 460.367188 281.859375 C 461.21875 282.011719 462.015625 281.398438 462.089844 280.539062 L 464.171875 256.753906 C 464.246094 255.894531 463.566406 255.152344 462.707031 255.152344 L 416.8125 255.152344 C 415.289062 255.152344 414.015625 256.320312 413.882812 257.839844 L 413.578125 261.359375 L 413.0625 267.21875 "/>
<path fill="none" stroke-width="1" stroke-linecap="butt" stroke-linejoin="miter" stroke="rgb(0%, 0%, 0%)" stroke-opacity="1" stroke-miterlimit="10" d="M 449.1875 266.613281 C 449.1875 271.757812 445.015625 275.925781 439.871094 275.925781 C 434.726562 275.925781 430.554688 271.757812 430.554688 266.613281 C 430.554688 261.464844 434.726562 257.296875 439.871094 257.296875 C 445.015625 257.296875 449.1875 261.464844 449.1875 266.613281 "/>
<path fill-rule="evenodd" fill="rgb(0%, 0%, 0%)" fill-opacity="1" stroke-width="1" stroke-linecap="butt" stroke-linejoin="miter" stroke="rgb(0%, 0%, 0%)" stroke-opacity="1" stroke-miterlimit="10" d="M 440.800781 266.613281 C 440.800781 267.855469 438.9375 267.855469 438.9375 266.613281 C 438.9375 265.371094 440.800781 265.371094 440.800781 266.613281 "/>
<path fill-rule="evenodd" fill="rgb(22.352941%, 52.941176%, 97.647059%)" fill-opacity="1" stroke-width="0.5" stroke-linecap="butt" stroke-linejoin="miter" stroke="rgb(0%, 0%, 0%)" stroke-opacity="1" stroke-miterlimit="10" d="M 407.597656 295.273438 L 406.683594 298.6875 C 406.289062 300.160156 407.082031 301.6875 408.515625 302.210938 L 451.640625 317.90625 C 452.449219 318.203125 453.339844 317.738281 453.5625 316.90625 L 459.742188 293.839844 C 459.96875 293.007812 459.429688 292.160156 458.578125 292.011719 L 413.386719 284.042969 C 411.882812 283.777344 410.429688 284.703125 410.035156 286.179688 L 409.117188 289.589844 L 407.597656 295.273438 "/>
<path fill="none" stroke-width="1" stroke-linecap="butt" stroke-linejoin="miter" stroke="rgb(0%, 0%, 0%)" stroke-opacity="1" stroke-miterlimit="10" d="M 443.417969 299.328125 C 443.417969 304.476562 439.246094 308.644531 434.101562 308.644531 C 428.957031 308.644531 424.785156 304.476562 424.785156 299.328125 C 424.785156 294.183594 428.957031 290.011719 434.101562 290.011719 C 439.246094 290.011719 443.417969 294.183594 443.417969 299.328125 "/>
<path fill-rule="evenodd" fill="rgb(0%, 0%, 0%)" fill-opacity="1" stroke-width="1" stroke-linecap="butt" stroke-linejoin="miter" stroke="rgb(0%, 0%, 0%)" stroke-opacity="1" stroke-miterlimit="10" d="M 435.03125 299.328125 C 435.03125 300.570312 433.167969 300.570312 433.167969 299.328125 C 433.167969 298.085938 435.03125 298.085938 435.03125 299.328125 "/>
<path fill-rule="evenodd" fill="rgb(22.352941%, 52.941176%, 97.647059%)" fill-opacity="1" stroke-width="0.5" stroke-linecap="butt" stroke-linejoin="miter" stroke="rgb(0%, 0%, 0%)" stroke-opacity="1" stroke-miterlimit="10" d="M 397.339844 321.953125 L 395.847656 325.152344 C 395.203125 326.535156 395.722656 328.179688 397.042969 328.945312 L 436.785156 351.890625 C 437.53125 352.320312 438.488281 352.019531 438.851562 351.238281 L 448.945312 329.597656 C 449.308594 328.8125 448.925781 327.886719 448.113281 327.59375 L 404.992188 311.898438 C 403.558594 311.375 401.964844 312.035156 401.320312 313.417969 L 399.828125 316.621094 L 397.339844 321.953125 "/>
<path fill="none" stroke-width="1" stroke-linecap="butt" stroke-linejoin="miter" stroke="rgb(0%, 0%, 0%)" stroke-opacity="1" stroke-miterlimit="10" d="M 432.054688 330.550781 C 432.054688 335.695312 427.882812 339.863281 422.738281 339.863281 C 417.59375 339.863281 413.421875 335.695312 413.421875 330.550781 C 413.421875 325.402344 417.59375 321.234375 422.738281 321.234375 C 427.882812 321.234375 432.054688 325.402344 432.054688 330.550781 "/>
<path fill-rule="evenodd" fill="rgb(0%, 0%, 0%)" fill-opacity="1" stroke-width="1" stroke-linecap="butt" stroke-linejoin="miter" stroke="rgb(0%, 0%, 0%)" stroke-opacity="1" stroke-miterlimit="10" d="M 423.667969 330.550781 C 423.667969 331.792969 421.804688 331.792969 421.804688 330.550781 C 421.804688 329.308594 423.667969 329.308594 423.667969 330.550781 "/>
<path fill-rule="evenodd" fill="rgb(89.803922%, 28.235294%, 7.45098%)" fill-opacity="1" stroke-width="0.5" stroke-linecap="butt" stroke-linejoin="miter" stroke="rgb(0%, 0%, 0%)" stroke-opacity="1" stroke-miterlimit="10" d="M 382.609375 346.445312 L 380.582031 349.339844 C 379.707031 350.585938 379.933594 352.296875 381.101562 353.277344 L 416.253906 382.777344 C 416.914062 383.332031 417.910156 383.199219 418.40625 382.492188 L 432.101562 362.933594 C 432.59375 362.226562 432.378906 361.246094 431.632812 360.816406 L 391.886719 337.871094 C 390.566406 337.109375 388.882812 337.480469 388.007812 338.730469 L 385.980469 341.625 L 382.609375 346.445312 "/>
<path fill="none" stroke-width="1" stroke-linecap="butt" stroke-linejoin="miter" stroke="rgb(0%, 0%, 0%)" stroke-opacity="1" stroke-miterlimit="10" d="M 415.441406 359.320312 C 415.441406 364.464844 411.273438 368.636719 406.125 368.636719 C 400.980469 368.636719 396.808594 364.464844 396.808594 359.320312 C 396.808594 354.175781 400.980469 350.003906 406.125 350.003906 C 411.273438 350.003906 415.441406 354.175781 415.441406 359.320312 "/>
<path fill="none" stroke-width="1" stroke-linecap="butt" stroke-linejoin="miter" stroke="rgb(0%, 0%, 0%)" stroke-opacity="1" stroke-miterlimit="10" d="M 412.714844 365.910156 L 399.539062 352.734375 L 412.714844 365.910156 "/>
<path fill="none" stroke-width="1" stroke-linecap="butt" stroke-linejoin="miter" stroke="rgb(0%, 0%, 0%)" stroke-opacity="1" stroke-miterlimit="10" d="M 399.539062 365.910156 L 412.714844 352.734375 L 399.539062 365.910156 "/>
<path fill-rule="evenodd" fill="rgb(89.803922%, 28.235294%, 7.45098%)" fill-opacity="1" stroke-width="0.5" stroke-linecap="butt" stroke-linejoin="miter" stroke="rgb(0%, 0%, 0%)" stroke-opacity="1" stroke-miterlimit="10" d="M 363.847656 368.003906 L 361.347656 370.503906 C 360.269531 371.582031 360.195312 373.304688 361.175781 374.472656 L 390.671875 409.628906 C 391.226562 410.289062 392.230469 410.332031 392.839844 409.722656 L 409.722656 392.839844 C 410.332031 392.230469 410.289062 391.226562 409.628906 390.671875 L 374.472656 361.175781 C 373.304688 360.195312 371.582031 360.269531 370.503906 361.347656 L 363.847656 368.003906 "/>
<path fill="none" stroke-width="1" stroke-linecap="butt" stroke-linejoin="miter" stroke="rgb(0%, 0%, 0%)" stroke-opacity="1" stroke-miterlimit="10" d="M 394.085938 384.769531 C 394.085938 389.917969 389.917969 394.085938 384.769531 394.085938 C 379.625 394.085938 375.453125 389.917969 375.453125 384.769531 C 375.453125 379.625 379.625 375.453125 384.769531 375.453125 C 389.917969 375.453125 394.085938 379.625 394.085938 384.769531 "/>
<path fill="none" stroke-width="1" stroke-linecap="butt" stroke-linejoin="miter" stroke="rgb(0%, 0%, 0%)" stroke-opacity="1" stroke-miterlimit="10" d="M 391.359375 391.359375 L 378.183594 378.183594 L 391.359375 391.359375 "/>
<path fill="none" stroke-width="1" stroke-linecap="butt" stroke-linejoin="miter" stroke="rgb(0%, 0%, 0%)" stroke-opacity="1" stroke-miterlimit="10" d="M 378.183594 391.359375 L 391.359375 378.183594 L 378.183594 391.359375 "/>
<path fill-rule="evenodd" fill="rgb(89.803922%, 28.235294%, 7.45098%)" fill-opacity="1" stroke-width="0.5" stroke-linecap="butt" stroke-linejoin="miter" stroke="rgb(0%, 0%, 0%)" stroke-opacity="1" stroke-miterlimit="10" d="M 341.625 385.980469 L 338.730469 388.007812 C 337.480469 388.882812 337.109375 390.566406 337.871094 391.886719 L 360.816406 431.632812 C 361.246094 432.378906 362.226562 432.59375 362.933594 432.101562 L 382.492188 418.40625 C 383.199219 417.910156 383.332031 416.914062 382.777344 416.253906 L 353.277344 381.101562 C 352.296875 379.933594 350.585938 379.707031 349.339844 380.582031 L 346.445312 382.609375 L 341.625 385.980469 "/>
<path fill="none" stroke-width="1" stroke-linecap="butt" stroke-linejoin="miter" stroke="rgb(0%, 0%, 0%)" stroke-opacity="1" stroke-miterlimit="10" d="M 368.636719 406.125 C 368.636719 411.273438 364.464844 415.441406 359.320312 415.441406 C 354.175781 415.441406 350.003906 411.273438 350.003906 406.125 C 350.003906 400.980469 354.175781 396.808594 359.320312 396.808594 C 364.464844 396.808594 368.636719 400.980469 368.636719 406.125 "/>
<path fill="none" stroke-width="1" stroke-linecap="butt" stroke-linejoin="miter" stroke="rgb(0%, 0%, 0%)" stroke-opacity="1" stroke-miterlimit="10" d="M 365.910156 412.714844 L 352.734375 399.539062 L 365.910156 412.714844 "/>
<path fill="none" stroke-width="1" stroke-linecap="butt" stroke-linejoin="miter" stroke="rgb(0%, 0%, 0%)" stroke-opacity="1" stroke-miterlimit="10" d="M 352.734375 412.714844 L 365.910156 399.539062 L 352.734375 412.714844 "/>
<path fill-rule="evenodd" fill="rgb(58.431373%, 98.431373%, 31.764706%)" fill-opacity="1" stroke-width="0.5" stroke-linecap="butt" stroke-linejoin="miter" stroke="rgb(0%, 0%, 0%)" stroke-opacity="1" stroke-miterlimit="10" d="M 316.621094 399.828125 L 313.417969 401.320312 C 312.035156 401.964844 311.375 403.558594 311.898438 404.992188 L 327.59375 448.113281 C 327.886719 448.925781 328.8125 449.308594 329.597656 448.945312 L 351.238281 438.851562 C 352.019531 438.488281 352.320312 437.53125 351.890625 436.785156 L 328.945312 397.042969 C 328.179688 395.722656 326.535156 395.203125 325.152344 395.847656 L 321.953125 397.339844 L 316.621094 399.828125 "/>
<path fill="none" stroke-width="1" stroke-linecap="butt" stroke-linejoin="miter" stroke="rgb(0%, 0%, 0%)" stroke-opacity="1" stroke-miterlimit="10" d="M 339.863281 422.738281 C 339.863281 427.882812 335.695312 432.054688 330.550781 432.054688 C 325.402344 432.054688 321.234375 427.882812 321.234375 422.738281 C 321.234375 417.59375 325.402344 413.421875 330.550781 413.421875 C 335.695312 413.421875 339.863281 417.59375 339.863281 422.738281 "/>
<path fill-rule="evenodd" fill="rgb(0%, 0%, 0%)" fill-opacity="1" stroke-width="1" stroke-linecap="butt" stroke-linejoin="miter" stroke="rgb(0%, 0%, 0%)" stroke-opacity="1" stroke-miterlimit="10" d="M 331.480469 422.738281 C 331.480469 423.980469 329.617188 423.980469 329.617188 422.738281 C 329.617188 421.496094 331.480469 421.496094 331.480469 422.738281 "/>
<path fill-rule="evenodd" fill="rgb(58.431373%, 98.431373%, 31.764706%)" fill-opacity="1" stroke-width="0.5" stroke-linecap="butt" stroke-linejoin="miter" stroke="rgb(0%, 0%, 0%)" stroke-opacity="1" stroke-miterlimit="10" d="M 289.589844 409.117188 L 286.179688 410.035156 C 284.703125 410.429688 283.777344 411.882812 284.042969 413.386719 L 292.011719 458.578125 C 292.160156 459.429688 293.007812 459.96875 293.839844 459.742188 L 316.90625 453.5625 C 317.738281 453.339844 318.203125 452.449219 317.90625 451.640625 L 302.210938 408.515625 C 301.6875 407.082031 300.160156 406.289062 298.6875 406.683594 L 295.273438 407.597656 L 289.589844 409.117188 "/>
<path fill="none" stroke-width="1" stroke-linecap="butt" stroke-linejoin="miter" stroke="rgb(0%, 0%, 0%)" stroke-opacity="1" stroke-miterlimit="10" d="M 308.644531 434.101562 C 308.644531 439.246094 304.476562 443.417969 299.328125 443.417969 C 294.183594 443.417969 290.011719 439.246094 290.011719 434.101562 C 290.011719 428.957031 294.183594 424.785156 299.328125 424.785156 C 304.476562 424.785156 308.644531 428.957031 308.644531 434.101562 "/>
<path fill-rule="evenodd" fill="rgb(0%, 0%, 0%)" fill-opacity="1" stroke-width="1" stroke-linecap="butt" stroke-linejoin="miter" stroke="rgb(0%, 0%, 0%)" stroke-opacity="1" stroke-miterlimit="10" d="M 300.261719 434.101562 C 300.261719 435.34375 298.398438 435.34375 298.398438 434.101562 C 298.398438 432.859375 300.261719 432.859375 300.261719 434.101562 "/>
<path fill-rule="evenodd" fill="rgb(58.431373%, 98.431373%, 31.764706%)" fill-opacity="1" stroke-width="0.5" stroke-linecap="butt" stroke-linejoin="miter" stroke="rgb(0%, 0%, 0%)" stroke-opacity="1" stroke-miterlimit="10" d="M 261.359375 413.578125 L 257.839844 413.882812 C 256.320312 414.015625 255.152344 415.289062 255.152344 416.8125 L 255.152344 462.707031 C 255.152344 463.566406 255.894531 464.246094 256.753906 464.171875 L 280.539062 462.089844 C 281.398438 462.015625 282.011719 461.21875 281.859375 460.367188 L 273.890625 415.175781 C 273.625 413.671875 272.257812 412.621094 270.738281 412.753906 L 267.21875 413.0625 L 261.359375 413.578125 "/>
<path fill="none" stroke-width="1" stroke-linecap="butt" stroke-linejoin="miter" stroke="rgb(0%, 0%, 0%)" stroke-opacity="1" stroke-miterlimit="10" d="M 275.925781 439.871094 C 275.925781 445.015625 271.757812 449.1875 266.613281 449.1875 C 261.464844 449.1875 257.296875 445.015625 257.296875 439.871094 C 257.296875 434.726562 261.464844 430.554688 266.613281 430.554688 C 271.757812 430.554688 275.925781 434.726562 275.925781 439.871094 "/>
<path fill-rule="evenodd" fill="rgb(0%, 0%, 0%)" fill-opacity="1" stroke-width="1" stroke-linecap="butt" stroke-linejoin="miter" stroke="rgb(0%, 0%, 0%)" stroke-opacity="1" stroke-miterlimit="10" d="M 267.542969 439.871094 C 267.542969 441.113281 265.679688 441.113281 265.679688 439.871094 C 265.679688 438.628906 267.542969 438.628906 267.542969 439.871094 "/>
<path fill-rule="evenodd" fill="rgb(22.352941%, 52.941176%, 97.647059%)" fill-opacity="1" stroke-width="0.5" stroke-linecap="butt" stroke-linejoin="miter" stroke="rgb(0%, 0%, 0%)" stroke-opacity="1" stroke-miterlimit="10" d="M 232.78125 413.0625 L 229.261719 412.753906 C 227.742188 412.621094 226.375 413.671875 226.109375 415.175781 L 218.140625 460.367188 C 217.988281 461.21875 218.601562 462.015625 219.460938 462.089844 L 243.246094 464.171875 C 244.105469 464.246094 244.847656 463.566406 244.847656 462.707031 L 244.847656 416.8125 C 244.847656 415.289062 243.679688 414.015625 242.160156 413.882812 L 238.640625 413.578125 L 232.78125 413.0625 "/>
<path fill="none" stroke-width="1" stroke-linecap="butt" stroke-linejoin="miter" stroke="rgb(0%, 0%, 0%)" stroke-opacity="1" stroke-miterlimit="10" d="M 242.703125 439.871094 C 242.703125 445.015625 238.535156 449.1875 233.386719 449.1875 C 228.242188 449.1875 224.074219 445.015625 224.074219 439.871094 C 224.074219 434.726562 228.242188 430.554688 233.386719 430.554688 C 238.535156 430.554688 242.703125 434.726562 242.703125 439.871094 "/>
<path fill="none" stroke-width="1" stroke-linecap="butt" stroke-linejoin="miter" stroke="rgb(0%, 0%, 0%)" stroke-opacity="1" stroke-miterlimit="10" d="M 239.976562 446.457031 L 226.800781 433.28125 L 239.976562 446.457031 "/>
<path fill="none" stroke-width="1" stroke-linecap="butt" stroke-linejoin="miter" stroke="rgb(0%, 0%, 0%)" stroke-opacity="1" stroke-miterlimit="10" d="M 226.800781 446.457031 L 239.976562 433.28125 L 226.800781 446.457031 "/>
<path fill-rule="evenodd" fill="rgb(22.352941%, 52.941176%, 97.647059%)" fill-opacity="1" stroke-width="0.5" stroke-linecap="butt" stroke-linejoin="miter" stroke="rgb(0%, 0%, 0%)" stroke-opacity="1" stroke-miterlimit="10" d="M 204.726562 407.597656 L 201.3125 406.683594 C 199.839844 406.289062 198.3125 407.082031 197.789062 408.515625 L 182.09375 451.640625 C 181.796875 452.449219 182.261719 453.339844 183.09375 453.5625 L 206.160156 459.742188 C 206.992188 459.96875 207.839844 459.429688 207.988281 458.578125 L 215.957031 413.386719 C 216.222656 411.882812 215.296875 410.429688 213.820312 410.035156 L 210.410156 409.117188 L 204.726562 407.597656 "/>
<path fill="none" stroke-width="1" stroke-linecap="butt" stroke-linejoin="miter" stroke="rgb(0%, 0%, 0%)" stroke-opacity="1" stroke-miterlimit="10" d="M 209.988281 434.101562 C 209.988281 439.246094 205.816406 443.417969 200.671875 443.417969 C 195.523438 443.417969 191.355469 439.246094 191.355469 434.101562 C 191.355469 428.957031 195.523438 424.785156 200.671875 424.785156 C 205.816406 424.785156 209.988281 428.957031 209.988281 434.101562 "/>
<path fill="none" stroke-width="1" stroke-linecap="butt" stroke-linejoin="miter" stroke="rgb(0%, 0%, 0%)" stroke-opacity="1" stroke-miterlimit="10" d="M 207.257812 440.6875 L 194.082031 427.511719 L 207.257812 440.6875 "/>
<path fill="none" stroke-width="1" stroke-linecap="butt" stroke-linejoin="miter" stroke="rgb(0%, 0%, 0%)" stroke-opacity="1" stroke-miterlimit="10" d="M 194.082031 440.6875 L 207.257812 427.511719 L 194.082031 440.6875 "/>
<path fill-rule="evenodd" fill="rgb(22.352941%, 52.941176%, 97.647059%)" fill-opacity="1" stroke-width="0.5" stroke-linecap="butt" stroke-linejoin="miter" stroke="rgb(0%, 0%, 0%)" stroke-opacity="1" stroke-miterlimit="10" d="M 178.046875 397.339844 L 174.847656 395.847656 C 173.464844 395.203125 171.820312 395.722656 171.054688 397.042969 L 148.109375 436.785156 C 147.679688 437.53125 147.980469 438.488281 148.761719 438.851562 L 170.402344 448.945312 C 171.1875 449.308594 172.113281 448.925781 172.40625 448.113281 L 188.101562 404.992188 C 188.625 403.558594 187.964844 401.964844 186.582031 401.320312 L 183.378906 399.828125 L 178.046875 397.339844 "/>
<path fill="none" stroke-width="1" stroke-linecap="butt" stroke-linejoin="miter" stroke="rgb(0%, 0%, 0%)" stroke-opacity="1" stroke-miterlimit="10" d="M 178.765625 422.738281 C 178.765625 427.882812 174.597656 432.054688 169.449219 432.054688 C 164.304688 432.054688 160.136719 427.882812 160.136719 422.738281 C 160.136719 417.59375 164.304688 413.421875 169.449219 413.421875 C 174.597656 413.421875 178.765625 417.59375 178.765625 422.738281 "/>
<path fill="none" stroke-width="1" stroke-linecap="butt" stroke-linejoin="miter" stroke="rgb(0%, 0%, 0%)" stroke-opacity="1" stroke-miterlimit="10" d="M 176.039062 429.324219 L 162.863281 416.148438 L 176.039062 429.324219 "/>
<path fill="none" stroke-width="1" stroke-linecap="butt" stroke-linejoin="miter" stroke="rgb(0%, 0%, 0%)" stroke-opacity="1" stroke-miterlimit="10" d="M 162.863281 429.324219 L 176.039062 416.148438 L 162.863281 429.324219 "/>
<path fill-rule="evenodd" fill="rgb(89.803922%, 28.235294%, 7.45098%)" fill-opacity="1" stroke-width="0.5" stroke-linecap="butt" stroke-linejoin="miter" stroke="rgb(0%, 0%, 0%)" stroke-opacity="1" stroke-miterlimit="10" d="M 153.554688 382.609375 L 150.660156 380.582031 C 149.414062 379.707031 147.703125 379.933594 146.722656 381.101562 L 117.222656 416.253906 C 116.667969 416.914062 116.800781 417.910156 117.507812 418.40625 L 137.066406 432.101562 C 137.773438 432.59375 138.753906 432.378906 139.183594 431.632812 L 162.128906 391.886719 C 162.890625 390.566406 162.519531 388.882812 161.269531 388.007812 L 158.375 385.980469 L 153.554688 382.609375 "/>
<path fill="none" stroke-width="1" stroke-linecap="butt" stroke-linejoin="miter" stroke="rgb(0%, 0%, 0%)" stroke-opacity="1" stroke-miterlimit="10" d="M 149.996094 406.125 C 149.996094 411.273438 145.824219 415.441406 140.679688 415.441406 C 135.535156 415.441406 131.363281 411.273438 131.363281 406.125 C 131.363281 400.980469 135.535156 396.808594 140.679688 396.808594 C 145.824219 396.808594 149.996094 400.980469 149.996094 406.125 "/>
<path fill-rule="evenodd" fill="rgb(0%, 0%, 0%)" fill-opacity="1" stroke-width="1" stroke-linecap="butt" stroke-linejoin="miter" stroke="rgb(0%, 0%, 0%)" stroke-opacity="1" stroke-miterlimit="10" d="M 141.609375 406.125 C 141.609375 407.367188 139.746094 407.367188 139.746094 406.125 C 139.746094 404.882812 141.609375 404.882812 141.609375 406.125 "/>
<path fill-rule="evenodd" fill="rgb(89.803922%, 28.235294%, 7.45098%)" fill-opacity="1" stroke-width="0.5" stroke-linecap="butt" stroke-linejoin="miter" stroke="rgb(0%, 0%, 0%)" stroke-opacity="1" stroke-miterlimit="10" d="M 131.996094 363.847656 L 129.496094 361.347656 C 128.417969 360.269531 126.695312 360.195312 125.527344 361.175781 L 90.371094 390.671875 C 89.710938 391.226562 89.667969 392.230469 90.277344 392.839844 L 107.160156 409.722656 C 107.769531 410.332031 108.773438 410.289062 109.328125 409.628906 L 138.824219 374.472656 C 139.804688 373.304688 139.730469 371.582031 138.652344 370.503906 L 131.996094 363.847656 "/>
<path fill="none" stroke-width="1" stroke-linecap="butt" stroke-linejoin="miter" stroke="rgb(0%, 0%, 0%)" stroke-opacity="1" stroke-miterlimit="10" d="M 124.546875 384.769531 C 124.546875 389.917969 120.375 394.085938 115.230469 394.085938 C 110.082031 394.085938 105.914062 389.917969 105.914062 384.769531 C 105.914062 379.625 110.082031 375.453125 115.230469 375.453125 C 120.375 375.453125 124.546875 379.625 124.546875 384.769531 "/>
<path fill-rule="evenodd" fill="rgb(0%, 0%, 0%)" fill-opacity="1" stroke-width="1" stroke-linecap="butt" stroke-linejoin="miter" stroke="rgb(0%, 0%, 0%)" stroke-opacity="1" stroke-miterlimit="10" d="M 116.160156 384.769531 C 116.160156 386.011719 114.296875 386.011719 114.296875 384.769531 C 114.296875 383.527344 116.160156 383.527344 116.160156 384.769531 "/>
<path fill-rule="evenodd" fill="rgb(89.803922%, 28.235294%, 7.45098%)" fill-opacity="1" stroke-width="0.5" stroke-linecap="butt" stroke-linejoin="miter" stroke="rgb(0%, 0%, 0%)" stroke-opacity="1" stroke-miterlimit="10" d="M 114.019531 341.625 L 111.992188 338.730469 C 111.117188 337.480469 109.433594 337.109375 108.113281 337.871094 L 68.367188 360.816406 C 67.621094 361.246094 67.40625 362.226562 67.898438 362.933594 L 81.59375 382.492188 C 82.089844 383.199219 83.085938 383.332031 83.746094 382.777344 L 118.898438 353.277344 C 120.066406 352.296875 120.292969 350.585938 119.417969 349.339844 L 117.390625 346.445312 L 114.019531 341.625 "/>
<path fill="none" stroke-width="1" stroke-linecap="butt" stroke-linejoin="miter" stroke="rgb(0%, 0%, 0%)" stroke-opacity="1" stroke-miterlimit="10" d="M 103.191406 359.320312 C 103.191406 364.464844 99.019531 368.636719 93.875 368.636719 C 88.726562 368.636719 84.558594 364.464844 84.558594 359.320312 C 84.558594 354.175781 88.726562 350.003906 93.875 350.003906 C 99.019531 350.003906 103.191406 354.175781 103.191406 359.320312 "/>
<path fill-rule="evenodd" fill="rgb(0%, 0%, 0%)" fill-opacity="1" stroke-width="1" stroke-linecap="butt" stroke-linejoin="miter" stroke="rgb(0%, 0%, 0%)" stroke-opacity="1" stroke-miterlimit="10" d="M 94.804688 359.320312 C 94.804688 360.5625 92.941406 360.5625 92.941406 359.320312 C 92.941406 358.078125 94.804688 358.078125 94.804688 359.320312 "/>
<path fill-rule="evenodd" fill="rgb(58.431373%, 98.431373%, 31.764706%)" fill-opacity="1" stroke-width="0.5" stroke-linecap="butt" stroke-linejoin="miter" stroke="rgb(0%, 0%, 0%)" stroke-opacity="1" stroke-miterlimit="10" d="M 100.171875 316.621094 L 98.679688 313.417969 C 98.035156 312.035156 96.441406 311.375 95.007812 311.898438 L 51.886719 327.59375 C 51.074219 327.886719 50.691406 328.8125 51.054688 329.597656 L 61.148438 351.238281 C 61.511719 352.019531 62.46875 352.320312 63.214844 351.890625 L 102.957031 328.945312 C 104.277344 328.179688 104.796875 326.535156 104.152344 325.152344 L 102.660156 321.953125 L 100.171875 316.621094 "/>
<path fill="none" stroke-width="1" stroke-linecap="butt" stroke-linejoin="miter" stroke="rgb(0%, 0%, 0%)" stroke-opacity="1" stroke-miterlimit="10" d="M 86.578125 330.550781 C 86.578125 335.695312 82.40625 339.863281 77.261719 339.863281 C 72.117188 339.863281 67.945312 335.695312 67.945312 330.550781 C 67.945312 325.402344 72.117188 321.234375 77.261719 321.234375 C 82.40625 321.234375 86.578125 325.402344 86.578125 330.550781 "/>
<path fill="none" stroke-width="1" stroke-linecap="butt" stroke-linejoin="miter" stroke="rgb(0%, 0%, 0%)" stroke-opacity="1" stroke-miterlimit="10" d="M 83.851562 337.136719 L 70.675781 323.960938 L 83.851562 337.136719 "/>
<path fill="none" stroke-width="1" stroke-linecap="butt" stroke-linejoin="miter" stroke="rgb(0%, 0%, 0%)" stroke-opacity="1" stroke-miterlimit="10" d="M 70.675781 337.136719 L 83.851562 323.960938 L 70.675781 337.136719 "/>
<path fill-rule="evenodd" fill="rgb(58.431373%, 98.431373%, 31.764706%)" fill-opacity="1" stroke-width="0.5" stroke-linecap="butt" stroke-linejoin="miter" stroke="rgb(0%, 0%, 0%)" stroke-opacity="1" stroke-miterlimit="10" d="M 90.882812 289.589844 L 89.964844 286.179688 C 89.570312 284.703125 88.117188 283.777344 86.613281 284.042969 L 41.421875 292.011719 C 40.570312 292.160156 40.03125 293.007812 40.257812 293.839844 L 46.4375 316.90625 C 46.660156 317.738281 47.550781 318.203125 48.359375 317.90625 L 91.484375 302.210938 C 92.917969 301.6875 93.710938 300.160156 93.316406 298.6875 L 92.402344 295.273438 L 90.882812 289.589844 "/>
<path fill="none" stroke-width="1" stroke-linecap="butt" stroke-linejoin="miter" stroke="rgb(0%, 0%, 0%)" stroke-opacity="1" stroke-miterlimit="10" d="M 75.214844 299.328125 C 75.214844 304.476562 71.042969 308.644531 65.898438 308.644531 C 60.753906 308.644531 56.582031 304.476562 56.582031 299.328125 C 56.582031 294.183594 60.753906 290.011719 65.898438 290.011719 C 71.042969 290.011719 75.214844 294.183594 75.214844 299.328125 "/>
<path fill="none" stroke-width="1" stroke-linecap="butt" stroke-linejoin="miter" stroke="rgb(0%, 0%, 0%)" stroke-opacity="1" stroke-miterlimit="10" d="M 72.488281 305.917969 L 59.3125 292.742188 L 72.488281 305.917969 "/>
<path fill="none" stroke-width="1" stroke-linecap="butt" stroke-linejoin="miter" stroke="rgb(0%, 0%, 0%)" stroke-opacity="1" stroke-miterlimit="10" d="M 59.3125 305.917969 L 72.488281 292.742188 L 59.3125 305.917969 "/>
<path fill-rule="evenodd" fill="rgb(58.431373%, 98.431373%, 31.764706%)" fill-opacity="1" stroke-width="0.5" stroke-linecap="butt" stroke-linejoin="miter" stroke="rgb(0%, 0%, 0%)" stroke-opacity="1" stroke-miterlimit="10" d="M 86.421875 261.359375 L 86.117188 257.839844 C 85.984375 256.320312 84.710938 255.152344 83.1875 255.152344 L 37.292969 255.152344 C 36.433594 255.152344 35.753906 255.894531 35.828125 256.753906 L 37.910156 280.539062 C 37.984375 281.398438 38.78125 282.011719 39.632812 281.859375 L 84.824219 273.890625 C 86.328125 273.625 87.378906 272.257812 87.246094 270.738281 L 86.9375 267.21875 L 86.421875 261.359375 "/>
<path fill="none" stroke-width="1" stroke-linecap="butt" stroke-linejoin="miter" stroke="rgb(0%, 0%, 0%)" stroke-opacity="1" stroke-miterlimit="10" d="M 69.445312 266.613281 C 69.445312 271.757812 65.273438 275.925781 60.128906 275.925781 C 54.984375 275.925781 50.8125 271.757812 50.8125 266.613281 C 50.8125 261.464844 54.984375 257.296875 60.128906 257.296875 C 65.273438 257.296875 69.445312 261.464844 69.445312 266.613281 "/>
<path fill="none" stroke-width="1" stroke-linecap="butt" stroke-linejoin="miter" stroke="rgb(0%, 0%, 0%)" stroke-opacity="1" stroke-miterlimit="10" d="M 66.71875 273.199219 L 53.542969 260.023438 L 66.71875 273.199219 "/>
<path fill="none" stroke-width="1" stroke-linecap="butt" stroke-linejoin="miter" stroke="rgb(0%, 0%, 0%)" stroke-opacity="1" stroke-miterlimit="10" d="M 53.542969 273.199219 L 66.71875 260.023438 L 53.542969 273.199219 "/>
<path fill-rule="evenodd" fill="rgb(22.352941%, 52.941176%, 97.647059%)" fill-opacity="1" stroke-width="0.5" stroke-linecap="butt" stroke-linejoin="miter" stroke="rgb(0%, 0%, 0%)" stroke-opacity="1" stroke-miterlimit="10" d="M 86.9375 232.78125 L 87.246094 229.261719 C 87.378906 227.742188 86.328125 226.375 84.824219 226.109375 L 39.632812 218.140625 C 38.78125 217.988281 37.984375 218.601562 37.910156 219.460938 L 35.828125 243.246094 C 35.753906 244.105469 36.433594 244.847656 37.292969 244.847656 L 83.1875 244.847656 C 84.710938 244.847656 85.984375 243.679688 86.117188 242.160156 L 86.421875 238.640625 L 86.9375 232.78125 "/>
<path fill="none" stroke-width="1" stroke-linecap="butt" stroke-linejoin="miter" stroke="rgb(0%, 0%, 0%)" stroke-opacity="1" stroke-miterlimit="10" d="M 69.445312 233.386719 C 69.445312 238.535156 65.273438 242.703125 60.128906 242.703125 C 54.984375 242.703125 50.8125 238.535156 50.8125 233.386719 C 50.8125 228.242188 54.984375 224.074219 60.128906 224.074219 C 65.273438 224.074219 69.445312 228.242188 69.445312 233.386719 "/>
<path fill-rule="evenodd" fill="rgb(0%, 0%, 0%)" fill-opacity="1" stroke-width="1" stroke-linecap="butt" stroke-linejoin="miter" stroke="rgb(0%, 0%, 0%)" stroke-opacity="1" stroke-miterlimit="10" d="M 61.0625 233.386719 C 61.0625 234.628906 59.199219 234.628906 59.199219 233.386719 C 59.199219 232.144531 61.0625 232.144531 61.0625 233.386719 "/>
<path fill-rule="evenodd" fill="rgb(22.352941%, 52.941176%, 97.647059%)" fill-opacity="1" stroke-width="0.5" stroke-linecap="butt" stroke-linejoin="miter" stroke="rgb(0%, 0%, 0%)" stroke-opacity="1" stroke-miterlimit="10" d="M 92.402344 204.726562 L 93.316406 201.3125 C 93.710938 199.839844 92.917969 198.3125 91.484375 197.789062 L 48.359375 182.09375 C 47.550781 181.796875 46.660156 182.261719 46.4375 183.09375 L 40.257812 206.160156 C 40.03125 206.992188 40.570312 207.839844 41.421875 207.988281 L 86.613281 215.957031 C 88.117188 216.222656 89.570312 215.296875 89.964844 213.820312 L 90.882812 210.410156 L 92.402344 204.726562 "/>
<path fill="none" stroke-width="1" stroke-linecap="butt" stroke-linejoin="miter" stroke="rgb(0%, 0%, 0%)" stroke-opacity="1" stroke-miterlimit="10" d="M 75.214844 200.671875 C 75.214844 205.816406 71.042969 209.988281 65.898438 209.988281 C 60.753906 209.988281 56.582031 205.816406 56.582031 200.671875 C 56.582031 195.523438 60.753906 191.355469 65.898438 191.355469 C 71.042969 191.355469 75.214844 195.523438 75.214844 200.671875 "/>
<path fill-rule="evenodd" fill="rgb(0%, 0%, 0%)" fill-opacity="1" stroke-width="1" stroke-linecap="butt" stroke-linejoin="miter" stroke="rgb(0%, 0%, 0%)" stroke-opacity="1" stroke-miterlimit="10" d="M 66.832031 200.671875 C 66.832031 201.914062 64.96875 201.914062 64.96875 200.671875 C 64.96875 199.429688 66.832031 199.429688 66.832031 200.671875 "/>
<path fill-rule="evenodd" fill="rgb(22.352941%, 52.941176%, 97.647059%)" fill-opacity="1" stroke-width="0.5" stroke-linecap="butt" stroke-linejoin="miter" stroke="rgb(0%, 0%, 0%)" stroke-opacity="1" stroke-miterlimit="10" d="M 102.660156 178.046875 L 104.152344 174.847656 C 104.796875 173.464844 104.277344 171.820312 102.957031 171.054688 L 63.214844 148.109375 C 62.46875 147.679688 61.511719 147.980469 61.148438 148.761719 L 51.054688 170.402344 C 50.691406 171.1875 51.074219 172.113281 51.886719 172.40625 L 95.007812 188.101562 C 96.441406 188.625 98.035156 187.964844 98.679688 186.582031 L 100.171875 183.378906 L 102.660156 178.046875 "/>
<path fill="none" stroke-width="1" stroke-linecap="butt" stroke-linejoin="miter" stroke="rgb(0%, 0%, 0%)" stroke-opacity="1" stroke-miterlimit="10" d="M 86.578125 169.449219 C 86.578125 174.597656 82.40625 178.765625 77.261719 178.765625 C 72.117188 178.765625 67.945312 174.597656 67.945312 169.449219 C 67.945312 164.304688 72.117188 160.136719 77.261719 160.136719 C 82.40625 160.136719 86.578125 164.304688 86.578125 169.449219 "/>
<path fill-rule="evenodd" fill="rgb(0%, 0%, 0%)" fill-opacity="1" stroke-width="1" stroke-linecap="butt" stroke-linejoin="miter" stroke="rgb(0%, 0%, 0%)" stroke-opacity="1" stroke-miterlimit="10" d="M 78.195312 169.449219 C 78.195312 170.691406 76.332031 170.691406 76.332031 169.449219 C 76.332031 168.207031 78.195312 168.207031 78.195312 169.449219 "/>
<path fill-rule="evenodd" fill="rgb(89.803922%, 28.235294%, 7.45098%)" fill-opacity="1" stroke-width="0.5" stroke-linecap="butt" stroke-linejoin="miter" stroke="rgb(0%, 0%, 0%)" stroke-opacity="1" stroke-miterlimit="10" d="M 117.390625 153.554688 L 119.417969 150.660156 C 120.292969 149.414062 120.066406 147.703125 118.898438 146.722656 L 83.746094 117.222656 C 83.085938 116.667969 82.089844 116.800781 81.59375 117.507812 L 67.898438 137.066406 C 67.40625 137.773438 67.621094 138.753906 68.367188 139.183594 L 108.113281 162.128906 C 109.433594 162.890625 111.117188 162.519531 111.992188 161.269531 L 114.019531 158.375 L 117.390625 153.554688 "/>
<path fill="none" stroke-width="1" stroke-linecap="butt" stroke-linejoin="miter" stroke="rgb(0%, 0%, 0%)" stroke-opacity="1" stroke-miterlimit="10" d="M 103.191406 140.679688 C 103.191406 145.824219 99.019531 149.996094 93.875 149.996094 C 88.726562 149.996094 84.558594 145.824219 84.558594 140.679688 C 84.558594 135.535156 88.726562 131.363281 93.875 131.363281 C 99.019531 131.363281 103.191406 135.535156 103.191406 140.679688 "/>
<path fill="none" stroke-width="1" stroke-linecap="butt" stroke-linejoin="miter" stroke="rgb(0%, 0%, 0%)" stroke-opacity="1" stroke-miterlimit="10" d="M 100.460938 147.265625 L 87.285156 134.089844 L 100.460938 147.265625 "/>
<path fill="none" stroke-width="1" stroke-linecap="butt" stroke-linejoin="miter" stroke="rgb(0%, 0%, 0%)" stroke-opacity="1" stroke-miterlimit="10" d="M 87.285156 147.265625 L 100.460938 134.089844 L 87.285156 147.265625 "/>
<path fill-rule="evenodd" fill="rgb(89.803922%, 28.235294%, 7.45098%)" fill-opacity="1" stroke-width="0.5" stroke-linecap="butt" stroke-linejoin="miter" stroke="rgb(0%, 0%, 0%)" stroke-opacity="1" stroke-miterlimit="10" d="M 136.152344 131.996094 L 138.652344 129.496094 C 139.730469 128.417969 139.804688 126.695312 138.824219 125.527344 L 109.328125 90.371094 C 108.773438 89.710938 107.769531 89.667969 107.160156 90.277344 L 90.277344 107.160156 C 89.667969 107.769531 89.710938 108.773438 90.371094 109.328125 L 125.527344 138.824219 C 126.695312 139.804688 128.417969 139.730469 129.496094 138.652344 L 136.152344 131.996094 "/>
<path fill="none" stroke-width="1" stroke-linecap="butt" stroke-linejoin="miter" stroke="rgb(0%, 0%, 0%)" stroke-opacity="1" stroke-miterlimit="10" d="M 124.546875 115.230469 C 124.546875 120.375 120.375 124.546875 115.230469 124.546875 C 110.082031 124.546875 105.914062 120.375 105.914062 115.230469 C 105.914062 110.082031 110.082031 105.914062 115.230469 105.914062 C 120.375 105.914062 124.546875 110.082031 124.546875 115.230469 "/>
<path fill="none" stroke-width="1" stroke-linecap="butt" stroke-linejoin="miter" stroke="rgb(0%, 0%, 0%)" stroke-opacity="1" stroke-miterlimit="10" d="M 121.816406 121.816406 L 108.640625 108.640625 L 121.816406 121.816406 "/>
<path fill="none" stroke-width="1" stroke-linecap="butt" stroke-linejoin="miter" stroke="rgb(0%, 0%, 0%)" stroke-opacity="1" stroke-miterlimit="10" d="M 108.640625 121.816406 L 121.816406 108.640625 L 108.640625 121.816406 "/>
<path fill-rule="evenodd" fill="rgb(89.803922%, 28.235294%, 7.45098%)" fill-opacity="1" stroke-width="0.5" stroke-linecap="butt" stroke-linejoin="miter" stroke="rgb(0%, 0%, 0%)" stroke-opacity="1" stroke-miterlimit="10" d="M 158.375 114.019531 L 161.269531 111.992188 C 162.519531 111.117188 162.890625 109.433594 162.128906 108.113281 L 139.183594 68.367188 C 138.753906 67.621094 137.773438 67.40625 137.066406 67.898438 L 117.507812 81.59375 C 116.800781 82.089844 116.667969 83.085938 117.222656 83.746094 L 146.722656 118.898438 C 147.703125 120.066406 149.414062 120.292969 150.660156 119.417969 L 153.554688 117.390625 L 158.375 114.019531 "/>
<path fill="none" stroke-width="1" stroke-linecap="butt" stroke-linejoin="miter" stroke="rgb(0%, 0%, 0%)" stroke-opacity="1" stroke-miterlimit="10" d="M 149.996094 93.875 C 149.996094 99.019531 145.824219 103.191406 140.679688 103.191406 C 135.535156 103.191406 131.363281 99.019531 131.363281 93.875 C 131.363281 88.726562 135.535156 84.558594 140.679688 84.558594 C 145.824219 84.558594 149.996094 88.726562 149.996094 93.875 "/>
<path fill="none" stroke-width="1" stroke-linecap="butt" stroke-linejoin="miter" stroke="rgb(0%, 0%, 0%)" stroke-opacity="1" stroke-miterlimit="10" d="M 147.265625 100.460938 L 134.089844 87.285156 L 147.265625 100.460938 "/>
<path fill="none" stroke-width="1" stroke-linecap="butt" stroke-linejoin="miter" stroke="rgb(0%, 0%, 0%)" stroke-opacity="1" stroke-miterlimit="10" d="M 134.089844 100.460938 L 147.265625 87.285156 L 134.089844 100.460938 "/>
<path fill-rule="evenodd" fill="rgb(58.431373%, 98.431373%, 31.764706%)" fill-opacity="1" stroke-width="0.5" stroke-linecap="butt" stroke-linejoin="miter" stroke="rgb(0%, 0%, 0%)" stroke-opacity="1" stroke-miterlimit="10" d="M 183.378906 100.171875 L 186.582031 98.679688 C 187.964844 98.035156 188.625 96.441406 188.101562 95.007812 L 172.40625 51.886719 C 172.113281 51.074219 171.1875 50.691406 170.402344 51.054688 L 148.761719 61.148438 C 147.980469 61.511719 147.679688 62.46875 148.109375 63.214844 L 171.054688 102.957031 C 171.820312 104.277344 173.464844 104.796875 174.847656 104.152344 L 178.046875 102.660156 L 183.378906 100.171875 "/>
<path fill="none" stroke-width="1" stroke-linecap="butt" stroke-linejoin="miter" stroke="rgb(0%, 0%, 0%)" stroke-opacity="1" stroke-miterlimit="10" d="M 178.765625 77.261719 C 178.765625 82.40625 174.597656 86.578125 169.449219 86.578125 C 164.304688 86.578125 160.136719 82.40625 160.136719 77.261719 C 160.136719 72.117188 164.304688 67.945312 169.449219 67.945312 C 174.597656 67.945312 178.765625 72.117188 178.765625 77.261719 "/>
<path fill-rule="evenodd" fill="rgb(0%, 0%, 0%)" fill-opacity="1" stroke-width="1" stroke-linecap="butt" stroke-linejoin="miter" stroke="rgb(0%, 0%, 0%)" stroke-opacity="1" stroke-miterlimit="10" d="M 170.382812 77.261719 C 170.382812 78.503906 168.519531 78.503906 168.519531 77.261719 C 168.519531 76.019531 170.382812 76.019531 170.382812 77.261719 "/>
<path fill-rule="evenodd" fill="rgb(58.431373%, 98.431373%, 31.764706%)" fill-opacity="1" stroke-width="0.5" stroke-linecap="butt" stroke-linejoin="miter" stroke="rgb(0%, 0%, 0%)" stroke-opacity="1" stroke-miterlimit="10" d="M 210.410156 90.882812 L 213.820312 89.964844 C 215.296875 89.570312 216.222656 88.117188 215.957031 86.613281 L 207.988281 41.421875 C 207.839844 40.570312 206.992188 40.03125 206.160156 40.257812 L 183.09375 46.4375 C 182.261719 46.660156 181.796875 47.550781 182.09375 48.359375 L 197.789062 91.484375 C 198.3125 92.917969 199.839844 93.710938 201.3125 93.316406 L 204.726562 92.402344 L 210.410156 90.882812 "/>
<path fill="none" stroke-width="1" stroke-linecap="butt" stroke-linejoin="miter" stroke="rgb(0%, 0%, 0%)" stroke-opacity="1" stroke-miterlimit="10" d="M 209.988281 65.898438 C 209.988281 71.042969 205.816406 75.214844 200.671875 75.214844 C 195.523438 75.214844 191.355469 71.042969 191.355469 65.898438 C 191.355469 60.753906 195.523438 56.582031 200.671875 56.582031 C 205.816406 56.582031 209.988281 60.753906 209.988281 65.898438 "/>
<path fill-rule="evenodd" fill="rgb(0%, 0%, 0%)" fill-opacity="1" stroke-width="1" stroke-linecap="butt" stroke-linejoin="miter" stroke="rgb(0%, 0%, 0%)" stroke-opacity="1" stroke-miterlimit="10" d="M 201.601562 65.898438 C 201.601562 67.140625 199.738281 67.140625 199.738281 65.898438 C 199.738281 64.65625 201.601562 64.65625 201.601562 65.898438 "/>
<path fill-rule="evenodd" fill="rgb(58.431373%, 98.431373%, 31.764706%)" fill-opacity="1" stroke-width="0.5" stroke-linecap="butt" stroke-linejoin="miter" stroke="rgb(0%, 0%, 0%)" stroke-opacity="1" stroke-miterlimit="10" d="M 238.640625 86.421875 L 242.160156 86.117188 C 243.679688 85.984375 244.847656 84.710938 244.847656 83.1875 L 244.847656 37.292969 C 244.847656 36.433594 244.105469 35.753906 243.246094 35.828125 L 219.460938 37.910156 C 218.601562 37.984375 217.988281 38.78125 218.140625 39.632812 L 226.109375 84.824219 C 226.375 86.328125 227.742188 87.378906 229.261719 87.246094 L 232.78125 86.9375 L 238.640625 86.421875 "/>
<path fill="none" stroke-width="1" stroke-linecap="butt" stroke-linejoin="miter" stroke="rgb(0%, 0%, 0%)" stroke-opacity="1" stroke-miterlimit="10" d="M 242.703125 60.128906 C 242.703125 65.273438 238.535156 69.445312 233.386719 69.445312 C 228.242188 69.445312 224.074219 65.273438 224.074219 60.128906 C 224.074219 54.984375 228.242188 50.8125 233.386719 50.8125 C 238.535156 50.8125 242.703125 54.984375 242.703125 60.128906 "/>
<path fill-rule="evenodd" fill="rgb(0%, 0%, 0%)" fill-opacity="1" stroke-width="1" stroke-linecap="butt" stroke-linejoin="miter" stroke="rgb(0%, 0%, 0%)" stroke-opacity="1" stroke-miterlimit="10" d="M 234.320312 60.128906 C 234.320312 61.371094 232.457031 61.371094 232.457031 60.128906 C 232.457031 58.886719 234.320312 58.886719 234.320312 60.128906 "/>
<path fill-rule="evenodd" fill="rgb(22.352941%, 52.941176%, 97.647059%)" fill-opacity="1" stroke-width="0.5" stroke-linecap="butt" stroke-linejoin="miter" stroke="rgb(0%, 0%, 0%)" stroke-opacity="1" stroke-miterlimit="10" d="M 267.21875 86.9375 L 270.738281 87.246094 C 272.257812 87.378906 273.625 86.328125 273.890625 84.824219 L 281.859375 39.632812 C 282.011719 38.78125 281.398438 37.984375 280.539062 37.910156 L 256.753906 35.828125 C 255.894531 35.753906 255.152344 36.433594 255.152344 37.292969 L 255.152344 83.1875 C 255.152344 84.710938 256.320312 85.984375 257.839844 86.117188 L 261.359375 86.421875 L 267.21875 86.9375 "/>
<path fill="none" stroke-width="1" stroke-linecap="butt" stroke-linejoin="miter" stroke="rgb(0%, 0%, 0%)" stroke-opacity="1" stroke-miterlimit="10" d="M 275.925781 60.128906 C 275.925781 65.273438 271.757812 69.445312 266.613281 69.445312 C 261.464844 69.445312 257.296875 65.273438 257.296875 60.128906 C 257.296875 54.984375 261.464844 50.8125 266.613281 50.8125 C 271.757812 50.8125 275.925781 54.984375 275.925781 60.128906 "/>
<path fill="none" stroke-width="1" stroke-linecap="butt" stroke-linejoin="miter" stroke="rgb(0%, 0%, 0%)" stroke-opacity="1" stroke-miterlimit="10" d="M 273.199219 66.71875 L 260.023438 53.542969 L 273.199219 66.71875 "/>
<path fill="none" stroke-width="1" stroke-linecap="butt" stroke-linejoin="miter" stroke="rgb(0%, 0%, 0%)" stroke-opacity="1" stroke-miterlimit="10" d="M 260.023438 66.71875 L 273.199219 53.542969 L 260.023438 66.71875 "/>
<path fill-rule="evenodd" fill="rgb(22.352941%, 52.941176%, 97.647059%)" fill-opacity="1" stroke-width="0.5" stroke-linecap="butt" stroke-linejoin="miter" stroke="rgb(0%, 0%, 0%)" stroke-opacity="1" stroke-miterlimit="10" d="M 295.273438 92.402344 L 298.6875 93.316406 C 300.160156 93.710938 301.6875 92.917969 302.210938 91.484375 L 317.90625 48.359375 C 318.203125 47.550781 317.738281 46.660156 316.90625 46.4375 L 293.839844 40.257812 C 293.007812 40.03125 292.160156 40.570312 292.011719 41.421875 L 284.042969 86.613281 C 283.777344 88.117188 284.703125 89.570312 286.179688 89.964844 L 289.589844 90.882812 L 295.273438 92.402344 "/>
<path fill="none" stroke-width="1" stroke-linecap="butt" stroke-linejoin="miter" stroke="rgb(0%, 0%, 0%)" stroke-opacity="1" stroke-miterlimit="10" d="M 308.644531 65.898438 C 308.644531 71.042969 304.476562 75.214844 299.328125 75.214844 C 294.183594 75.214844 290.011719 71.042969 290.011719 65.898438 C 290.011719 60.753906 294.183594 56.582031 299.328125 56.582031 C 304.476562 56.582031 308.644531 60.753906 308.644531 65.898438 "/>
<path fill="none" stroke-width="1" stroke-linecap="butt" stroke-linejoin="miter" stroke="rgb(0%, 0%, 0%)" stroke-opacity="1" stroke-miterlimit="10" d="M 305.917969 72.488281 L 292.742188 59.3125 L 305.917969 72.488281 "/>
<path fill="none" stroke-width="1" stroke-linecap="butt" stroke-linejoin="miter" stroke="rgb(0%, 0%, 0%)" stroke-opacity="1" stroke-miterlimit="10" d="M 292.742188 72.488281 L 305.917969 59.3125 L 292.742188 72.488281 "/>
<path fill-rule="evenodd" fill="rgb(22.352941%, 52.941176%, 97.647059%)" fill-opacity="1" stroke-width="0.5" stroke-linecap="butt" stroke-linejoin="miter" stroke="rgb(0%, 0%, 0%)" stroke-opacity="1" stroke-miterlimit="10" d="M 321.953125 102.660156 L 325.152344 104.152344 C 326.535156 104.796875 328.179688 104.277344 328.945312 102.957031 L 351.890625 63.214844 C 352.320312 62.46875 352.019531 61.511719 351.238281 61.148438 L 329.597656 51.054688 C 328.8125 50.691406 327.886719 51.074219 327.59375 51.886719 L 311.898438 95.007812 C 311.375 96.441406 312.035156 98.035156 313.417969 98.679688 L 316.621094 100.171875 L 321.953125 102.660156 "/>
<path fill="none" stroke-width="1" stroke-linecap="butt" stroke-linejoin="miter" stroke="rgb(0%, 0%, 0%)" stroke-opacity="1" stroke-miterlimit="10" d="M 339.863281 77.261719 C 339.863281 82.40625 335.695312 86.578125 330.550781 86.578125 C 325.402344 86.578125 321.234375 82.40625 321.234375 77.261719 C 321.234375 72.117188 325.402344 67.945312 330.550781 67.945312 C 335.695312 67.945312 339.863281 72.117188 339.863281 77.261719 "/>
<path fill="none" stroke-width="1" stroke-linecap="butt" stroke-linejoin="miter" stroke="rgb(0%, 0%, 0%)" stroke-opacity="1" stroke-miterlimit="10" d="M 337.136719 83.851562 L 323.960938 70.675781 L 337.136719 83.851562 "/>
<path fill="none" stroke-width="1" stroke-linecap="butt" stroke-linejoin="miter" stroke="rgb(0%, 0%, 0%)" stroke-opacity="1" stroke-miterlimit="10" d="M 323.960938 83.851562 L 337.136719 70.675781 L 323.960938 83.851562 "/>
<path fill-rule="evenodd" fill="rgb(89.803922%, 28.235294%, 7.45098%)" fill-opacity="1" stroke-width="0.5" stroke-linecap="butt" stroke-linejoin="miter" stroke="rgb(0%, 0%, 0%)" stroke-opacity="1" stroke-miterlimit="10" d="M 346.445312 117.390625 L 349.339844 119.417969 C 350.585938 120.292969 352.296875 120.066406 353.277344 118.898438 L 382.777344 83.746094 C 383.332031 83.085938 383.199219 82.089844 382.492188 81.59375 L 362.933594 67.898438 C 362.226562 67.40625 361.246094 67.621094 360.816406 68.367188 L 337.871094 108.113281 C 337.109375 109.433594 337.480469 111.117188 338.730469 111.992188 L 341.625 114.019531 L 346.445312 117.390625 "/>
<path fill="none" stroke-width="1" stroke-linecap="butt" stroke-linejoin="miter" stroke="rgb(0%, 0%, 0%)" stroke-opacity="1" stroke-miterlimit="10" d="M 368.636719 93.875 C 368.636719 99.019531 364.464844 103.191406 359.320312 103.191406 C 354.175781 103.191406 350.003906 99.019531 350.003906 93.875 C 350.003906 88.726562 354.175781 84.558594 359.320312 84.558594 C 364.464844 84.558594 368.636719 88.726562 368.636719 93.875 "/>
<path fill-rule="evenodd" fill="rgb(0%, 0%, 0%)" fill-opacity="1" stroke-width="1" stroke-linecap="butt" stroke-linejoin="miter" stroke="rgb(0%, 0%, 0%)" stroke-opacity="1" stroke-miterlimit="10" d="M 360.253906 93.875 C 360.253906 95.117188 358.390625 95.117188 358.390625 93.875 C 358.390625 92.632812 360.253906 92.632812 360.253906 93.875 "/>
<path fill-rule="evenodd" fill="rgb(89.803922%, 28.235294%, 7.45098%)" fill-opacity="1" stroke-width="0.5" stroke-linecap="butt" stroke-linejoin="miter" stroke="rgb(0%, 0%, 0%)" stroke-opacity="1" stroke-miterlimit="10" d="M 368.003906 136.152344 L 370.503906 138.652344 C 371.582031 139.730469 373.304688 139.804688 374.472656 138.824219 L 409.628906 109.328125 C 410.289062 108.773438 410.332031 107.769531 409.722656 107.160156 L 392.839844 90.277344 C 392.230469 89.667969 391.226562 89.710938 390.671875 90.371094 L 361.175781 125.527344 C 360.195312 126.695312 360.269531 128.417969 361.347656 129.496094 L 368.003906 136.152344 "/>
<path fill="none" stroke-width="1" stroke-linecap="butt" stroke-linejoin="miter" stroke="rgb(0%, 0%, 0%)" stroke-opacity="1" stroke-miterlimit="10" d="M 394.085938 115.230469 C 394.085938 120.375 389.917969 124.546875 384.769531 124.546875 C 379.625 124.546875 375.453125 120.375 375.453125 115.230469 C 375.453125 110.082031 379.625 105.914062 384.769531 105.914062 C 389.917969 105.914062 394.085938 110.082031 394.085938 115.230469 "/>
<path fill-rule="evenodd" fill="rgb(0%, 0%, 0%)" fill-opacity="1" stroke-width="1" stroke-linecap="butt" stroke-linejoin="miter" stroke="rgb(0%, 0%, 0%)" stroke-opacity="1" stroke-miterlimit="10" d="M 385.703125 115.230469 C 385.703125 116.472656 383.839844 116.472656 383.839844 115.230469 C 383.839844 113.988281 385.703125 113.988281 385.703125 115.230469 "/>
<path fill-rule="evenodd" fill="rgb(89.803922%, 28.235294%, 7.45098%)" fill-opacity="1" stroke-width="0.5" stroke-linecap="butt" stroke-linejoin="miter" stroke="rgb(0%, 0%, 0%)" stroke-opacity="1" stroke-miterlimit="10" d="M 385.980469 158.375 L 388.007812 161.269531 C 388.882812 162.519531 390.566406 162.890625 391.886719 162.128906 L 431.632812 139.183594 C 432.378906 138.753906 432.59375 137.773438 432.101562 137.066406 L 418.40625 117.507812 C 417.910156 116.800781 416.914062 116.667969 416.253906 117.222656 L 381.101562 146.722656 C 379.933594 147.703125 379.707031 149.414062 380.582031 150.660156 L 382.609375 153.554688 L 385.980469 158.375 "/>
<path fill="none" stroke-width="1" stroke-linecap="butt" stroke-linejoin="miter" stroke="rgb(0%, 0%, 0%)" stroke-opacity="1" stroke-miterlimit="10" d="M 415.441406 140.679688 C 415.441406 145.824219 411.273438 149.996094 406.125 149.996094 C 400.980469 149.996094 396.808594 145.824219 396.808594 140.679688 C 396.808594 135.535156 400.980469 131.363281 406.125 131.363281 C 411.273438 131.363281 415.441406 135.535156 415.441406 140.679688 "/>
<path fill-rule="evenodd" fill="rgb(0%, 0%, 0%)" fill-opacity="1" stroke-width="1" stroke-linecap="butt" stroke-linejoin="miter" stroke="rgb(0%, 0%, 0%)" stroke-opacity="1" stroke-miterlimit="10" d="M 407.058594 140.679688 C 407.058594 141.921875 405.195312 141.921875 405.195312 140.679688 C 405.195312 139.4375 407.058594 139.4375 407.058594 140.679688 "/>
<path fill-rule="evenodd" fill="rgb(58.431373%, 98.431373%, 31.764706%)" fill-opacity="1" stroke-width="0.5" stroke-linecap="butt" stroke-linejoin="miter" stroke="rgb(0%, 0%, 0%)" stroke-opacity="1" stroke-miterlimit="10" d="M 399.828125 183.378906 L 401.320312 186.582031 C 401.964844 187.964844 403.558594 188.625 404.992188 188.101562 L 448.113281 172.40625 C 448.925781 172.113281 449.308594 171.1875 448.945312 170.402344 L 438.851562 148.761719 C 438.488281 147.980469 437.53125 147.679688 436.785156 148.109375 L 397.042969 171.054688 C 395.722656 171.820312 395.203125 173.464844 395.847656 174.847656 L 397.339844 178.046875 L 399.828125 183.378906 "/>
<path fill="none" stroke-width="1" stroke-linecap="butt" stroke-linejoin="miter" stroke="rgb(0%, 0%, 0%)" stroke-opacity="1" stroke-miterlimit="10" d="M 432.054688 169.449219 C 432.054688 174.597656 427.882812 178.765625 422.738281 178.765625 C 417.59375 178.765625 413.421875 174.597656 413.421875 169.449219 C 413.421875 164.304688 417.59375 160.136719 422.738281 160.136719 C 427.882812 160.136719 432.054688 164.304688 432.054688 169.449219 "/>
<path fill="none" stroke-width="1" stroke-linecap="butt" stroke-linejoin="miter" stroke="rgb(0%, 0%, 0%)" stroke-opacity="1" stroke-miterlimit="10" d="M 429.324219 176.039062 L 416.148438 162.863281 L 429.324219 176.039062 "/>
<path fill="none" stroke-width="1" stroke-linecap="butt" stroke-linejoin="miter" stroke="rgb(0%, 0%, 0%)" stroke-opacity="1" stroke-miterlimit="10" d="M 416.148438 176.039062 L 429.324219 162.863281 L 416.148438 176.039062 "/>
<path fill-rule="evenodd" fill="rgb(58.431373%, 98.431373%, 31.764706%)" fill-opacity="1" stroke-width="0.5" stroke-linecap="butt" stroke-linejoin="miter" stroke="rgb(0%, 0%, 0%)" stroke-opacity="1" stroke-miterlimit="10" d="M 409.117188 210.410156 L 410.035156 213.820312 C 410.429688 215.296875 411.882812 216.222656 413.386719 215.957031 L 458.578125 207.988281 C 459.429688 207.839844 459.96875 206.992188 459.742188 206.160156 L 453.5625 183.09375 C 453.339844 182.261719 452.449219 181.796875 451.640625 182.09375 L 408.515625 197.789062 C 407.082031 198.3125 406.289062 199.839844 406.683594 201.3125 L 407.597656 204.726562 L 409.117188 210.410156 "/>
<path fill="none" stroke-width="1" stroke-linecap="butt" stroke-linejoin="miter" stroke="rgb(0%, 0%, 0%)" stroke-opacity="1" stroke-miterlimit="10" d="M 443.417969 200.671875 C 443.417969 205.816406 439.246094 209.988281 434.101562 209.988281 C 428.957031 209.988281 424.785156 205.816406 424.785156 200.671875 C 424.785156 195.523438 428.957031 191.355469 434.101562 191.355469 C 439.246094 191.355469 443.417969 195.523438 443.417969 200.671875 "/>
<path fill="none" stroke-width="1" stroke-linecap="butt" stroke-linejoin="miter" stroke="rgb(0%, 0%, 0%)" stroke-opacity="1" stroke-miterlimit="10" d="M 440.6875 207.257812 L 427.511719 194.082031 L 440.6875 207.257812 "/>
<path fill="none" stroke-width="1" stroke-linecap="butt" stroke-linejoin="miter" stroke="rgb(0%, 0%, 0%)" stroke-opacity="1" stroke-miterlimit="10" d="M 427.511719 207.257812 L 440.6875 194.082031 L 427.511719 207.257812 "/>
<path fill-rule="evenodd" fill="rgb(58.431373%, 98.431373%, 31.764706%)" fill-opacity="1" stroke-width="0.5" stroke-linecap="butt" stroke-linejoin="miter" stroke="rgb(0%, 0%, 0%)" stroke-opacity="1" stroke-miterlimit="10" d="M 413.578125 238.640625 L 413.882812 242.160156 C 414.015625 243.679688 415.289062 244.847656 416.8125 244.847656 L 462.707031 244.847656 C 463.566406 244.847656 464.246094 244.105469 464.171875 243.246094 L 462.089844 219.460938 C 462.015625 218.601562 461.21875 217.988281 460.367188 218.140625 L 415.175781 226.109375 C 413.671875 226.375 412.621094 227.742188 412.753906 229.261719 L 413.0625 232.78125 L 413.578125 238.640625 "/>
<path fill="none" stroke-width="1" stroke-linecap="butt" stroke-linejoin="miter" stroke="rgb(0%, 0%, 0%)" stroke-opacity="1" stroke-miterlimit="10" d="M 449.1875 233.386719 C 449.1875 238.535156 445.015625 242.703125 439.871094 242.703125 C 434.726562 242.703125 430.554688 238.535156 430.554688 233.386719 C 430.554688 228.242188 434.726562 224.074219 439.871094 224.074219 C 445.015625 224.074219 449.1875 228.242188 449.1875 233.386719 "/>
<path fill="none" stroke-width="1" stroke-linecap="butt" stroke-linejoin="miter" stroke="rgb(0%, 0%, 0%)" stroke-opacity="1" stroke-miterlimit="10" d="M 446.457031 239.976562 L 433.28125 226.800781 L 446.457031 239.976562 "/>
<path fill="none" stroke-width="1" stroke-linecap="butt" stroke-linejoin="miter" stroke="rgb(0%, 0%, 0%)" stroke-opacity="1" stroke-miterlimit="10" d="M 433.28125 239.976562 L 446.457031 226.800781 L 433.28125 239.976562 "/>
<path fill-rule="evenodd" fill="rgb(50%, 50%, 50%)" fill-opacity="1" stroke-width="0.5" stroke-linecap="butt" stroke-linejoin="miter" stroke="rgb(0%, 0%, 0%)" stroke-opacity="1" stroke-miterlimit="10" d="M 409.226562 265.71875 L 407.035156 265.472656 L 406.644531 255.808594 L 390.246094 255.796875 L 388.019531 275.554688 L 404.007812 279.191406 L 406.539062 269.859375 L 408.730469 270.105469 C 407.410156 280.527344 405.066406 290.792969 401.734375 300.757812 L 399.652344 300.027344 L 401.421875 290.519531 L 385.441406 286.859375 L 378.875 305.628906 L 393.652344 312.730469 L 398.195312 304.191406 L 400.277344 304.921875 C 396.671875 314.789062 392.101562 324.277344 386.636719 333.25 L 384.769531 332.074219 L 388.609375 323.199219 L 373.84375 316.074219 L 363.265625 332.910156 L 376.089844 343.121094 L 382.421875 335.8125 L 384.289062 336.984375 C 378.578125 345.800781 372.011719 354.035156 364.6875 361.566406 L 363.125 360.007812 L 368.84375 352.207031 L 356.035156 341.976562 L 341.976562 356.035156 L 352.207031 368.84375 L 360.007812 363.125 L 361.566406 364.6875 C 354.035156 372.011719 345.800781 378.578125 336.984375 384.289062 L 335.8125 382.421875 L 343.121094 376.089844 L 332.910156 363.265625 L 316.074219 373.84375 L 323.199219 388.609375 L 332.074219 384.769531 L 333.25 386.636719 C 324.277344 392.101562 314.789062 396.671875 304.921875 400.277344 L 304.191406 398.195312 L 312.730469 393.652344 L 305.628906 378.875 L 286.859375 385.441406 L 290.519531 401.421875 L 300.027344 399.652344 L 300.757812 401.734375 C 290.792969 405.066406 280.527344 407.410156 270.105469 408.730469 L 269.859375 406.539062 L 279.191406 404.007812 L 275.554688 388.019531 L 255.796875 390.246094 L 255.808594 406.644531 L 265.472656 407.035156 L 265.71875 409.226562 C 255.265625 410.257812 244.734375 410.257812 234.28125 409.226562 L 234.527344 407.035156 L 244.191406 406.644531 L 244.203125 390.246094 L 224.445312 388.019531 L 220.808594 404.007812 L 230.140625 406.539062 L 229.894531 408.730469 C 219.472656 407.410156 209.207031 405.066406 199.242188 401.734375 L 199.972656 399.652344 L 209.480469 401.421875 L 213.140625 385.441406 L 194.371094 378.875 L 187.269531 393.652344 L 195.808594 398.195312 L 195.078125 400.277344 C 185.210938 396.671875 175.722656 392.101562 166.75 386.636719 L 167.925781 384.769531 L 176.800781 388.609375 L 183.925781 373.84375 L 167.089844 363.265625 L 156.878906 376.089844 L 164.1875 382.421875 L 163.015625 384.289062 C 154.199219 378.578125 145.964844 372.011719 138.433594 364.6875 L 139.992188 363.125 L 147.792969 368.84375 L 158.023438 356.035156 L 143.964844 341.976562 L 131.15625 352.207031 L 136.875 360.007812 L 135.3125 361.566406 C 127.988281 354.035156 121.421875 345.800781 115.710938 336.984375 L 117.578125 335.8125 L 123.910156 343.121094 L 136.734375 332.910156 L 126.15625 316.074219 L 111.390625 323.199219 L 115.230469 332.074219 L 113.363281 333.25 C 107.898438 324.277344 103.328125 314.789062 99.722656 304.921875 L 101.804688 304.191406 L 106.347656 312.730469 L 121.125 305.628906 L 114.558594 286.859375 L 98.578125 290.519531 L 100.347656 300.027344 L 98.265625 300.757812 C 94.933594 290.792969 92.589844 280.527344 91.269531 270.105469 L 93.460938 269.859375 L 95.992188 279.191406 L 111.980469 275.554688 L 109.753906 255.796875 L 93.355469 255.808594 L 92.964844 265.472656 L 90.773438 265.71875 C 89.742188 255.265625 89.742188 244.734375 90.773438 234.28125 L 92.964844 234.527344 L 93.355469 244.191406 L 109.753906 244.203125 L 111.980469 224.445312 L 95.992188 220.808594 L 93.460938 230.140625 L 91.269531 229.894531 C 92.589844 219.472656 94.933594 209.207031 98.265625 199.242188 L 100.347656 199.972656 L 98.578125 209.480469 L 114.558594 213.140625 L 121.125 194.371094 L 106.347656 187.269531 L 101.804688 195.808594 L 99.722656 195.078125 C 103.328125 185.210938 107.898438 175.722656 113.363281 166.75 L 115.230469 167.925781 L 111.390625 176.800781 L 126.15625 183.925781 L 136.734375 167.089844 L 123.910156 156.878906 L 117.578125 164.1875 L 115.710938 163.015625 C 121.421875 154.199219 127.988281 145.964844 135.3125 138.433594 L 136.875 139.992188 L 131.15625 147.792969 L 143.964844 158.023438 L 158.023438 143.964844 L 147.792969 131.15625 L 139.992188 136.875 L 138.433594 135.3125 C 145.964844 127.988281 154.199219 121.421875 163.015625 115.710938 L 164.1875 117.578125 L 156.878906 123.910156 L 167.089844 136.734375 L 183.925781 126.15625 L 176.800781 111.390625 L 167.925781 115.230469 L 166.75 113.363281 C 175.722656 107.898438 185.210938 103.328125 195.078125 99.722656 L 195.808594 101.804688 L 187.269531 106.347656 L 194.371094 121.125 L 213.140625 114.558594 L 209.480469 98.578125 L 199.972656 100.347656 L 199.242188 98.265625 C 209.207031 94.933594 219.472656 92.589844 229.894531 91.269531 L 230.140625 93.460938 L 220.808594 95.992188 L 224.445312 111.980469 L 244.203125 109.753906 L 244.191406 93.355469 L 234.527344 92.964844 L 234.28125 90.773438 C 244.734375 89.742188 255.265625 89.742188 265.71875 90.773438 L 265.472656 92.964844 L 255.808594 93.355469 L 255.796875 109.753906 L 275.554688 111.980469 L 279.191406 95.992188 L 269.859375 93.460938 L 270.105469 91.269531 C 280.527344 92.589844 290.792969 94.933594 300.757812 98.265625 L 300.027344 100.347656 L 290.519531 98.578125 L 286.859375 114.558594 L 305.628906 121.125 L 312.730469 106.347656 L 304.191406 101.804688 L 304.921875 99.722656 C 314.789062 103.328125 324.277344 107.898438 333.25 113.363281 L 332.074219 115.230469 L 323.199219 111.390625 L 316.074219 126.15625 L 332.910156 136.734375 L 343.121094 123.910156 L 335.8125 117.578125 L 336.984375 115.710938 C 345.800781 121.421875 354.035156 127.988281 361.566406 135.3125 L 360.007812 136.875 L 352.207031 131.15625 L 341.976562 143.964844 L 356.035156 158.023438 L 368.84375 147.792969 L 363.125 139.992188 L 364.6875 138.433594 C 372.011719 145.964844 378.578125 154.199219 384.289062 163.015625 L 382.421875 164.1875 L 376.089844 156.878906 L 363.265625 167.089844 L 373.84375 183.925781 L 388.609375 176.800781 L 384.769531 167.925781 L 386.636719 166.75 C 392.101562 175.722656 396.671875 185.210938 400.277344 195.078125 L 398.195312 195.808594 L 393.652344 187.269531 L 378.875 194.371094 L 385.441406 213.140625 L 401.421875 209.480469 L 399.652344 199.972656 L 401.734375 199.242188 C 405.066406 209.207031 407.410156 219.472656 408.730469 229.894531 L 406.539062 230.140625 L 404.007812 220.808594 L 388.019531 224.445312 L 390.246094 244.203125 L 406.644531 244.191406 L 407.035156 234.527344 L 409.226562 234.28125 C 410.257812 244.734375 410.257812 255.265625 409.226562 265.71875 M 305.882812 250 C 305.882812 280.863281 280.863281 305.882812 250 305.882812 C 219.136719 305.882812 194.117188 280.863281 194.117188 250 C 194.117188 219.136719 219.136719 194.117188 250 194.117188 C 280.863281 194.117188 305.882812 219.136719 305.882812 250 M 306.152344 306.152344 C 307.539062 304.765625 308.875 303.324219 310.15625 301.839844 L 312.921875 304.605469 L 372.921875 304.605469 L 376.113281 304.660156 L 382.679688 285.894531 L 372.921875 274.015625 L 312.921875 274.015625 L 312.921875 278.597656 C 309.492188 286.144531 304.734375 293.011719 298.875 298.875 C 293.011719 304.734375 286.144531 309.492188 278.597656 312.921875 L 274.015625 312.921875 L 274.015625 372.921875 L 285.894531 382.679688 L 304.660156 376.113281 L 304.605469 372.921875 L 304.605469 312.921875 L 301.839844 310.15625 C 303.324219 308.875 304.765625 307.539062 306.152344 306.152344 M 193.847656 306.152344 C 195.234375 307.539062 196.675781 308.875 198.160156 310.15625 L 195.394531 312.921875 L 195.394531 372.921875 L 195.339844 376.113281 L 214.105469 382.679688 L 225.984375 372.921875 L 225.984375 312.921875 L 221.402344 312.921875 C 213.855469 309.492188 206.988281 304.734375 201.125 298.875 C 195.265625 293.011719 190.507812 286.144531 187.078125 278.597656 L 187.078125 274.015625 L 127.078125 274.015625 L 117.320312 285.894531 L 123.886719 304.660156 L 127.078125 304.605469 L 187.078125 304.605469 L 189.84375 301.839844 C 191.125 303.324219 192.460938 304.765625 193.847656 306.152344 M 193.847656 193.847656 C 192.460938 195.234375 191.125 196.675781 189.84375 198.160156 L 187.078125 195.394531 L 127.078125 195.394531 L 123.886719 195.339844 L 117.320312 214.105469 L 127.078125 225.984375 L 187.078125 225.984375 L 187.078125 221.402344 C 190.507812 213.855469 195.265625 206.988281 201.125 201.125 C 206.988281 195.265625 213.855469 190.507812 221.402344 187.078125 L 225.984375 187.078125 L 225.984375 127.078125 L 214.105469 117.320312 L 195.339844 123.886719 L 195.394531 127.078125 L 195.394531 187.078125 L 198.160156 189.84375 C 196.675781 191.125 195.234375 192.460938 193.847656 193.847656 M 306.152344 193.847656 C 304.765625 192.460938 303.324219 191.125 301.839844 189.84375 L 304.605469 187.078125 L 304.605469 127.078125 L 304.660156 123.886719 L 285.894531 117.320312 L 274.015625 127.078125 L 274.015625 187.078125 L 278.597656 187.078125 C 286.144531 190.507812 293.011719 195.265625 298.875 201.125 C 304.734375 206.988281 309.492188 213.855469 312.921875 221.402344 L 312.921875 225.984375 L 372.921875 225.984375 L 382.679688 214.105469 L 376.113281 195.339844 L 372.921875 195.394531 L 312.921875 195.394531 L 310.15625 198.160156 C 308.875 196.675781 307.539062 195.234375 306.152344 193.847656 "/>
<path fill-rule="evenodd" fill="rgb(100%, 55%, 0%)" fill-opacity="1" stroke-width="0.5" stroke-linecap="butt" stroke-linejoin="miter" stroke="rgb(0%, 0%, 0%)" stroke-opacity="1" stroke-miterlimit="10" d="M 407.035156 265.472656 L 406.644531 255.808594 L 390.246094 255.796875 L 388.019531 275.554688 L 404.007812 279.191406 L 406.539062 269.859375 L 407.035156 265.472656 "/>
<path fill-rule="evenodd" fill="rgb(100%, 55%, 0%)" fill-opacity="1" stroke-width="0.5" stroke-linecap="butt" stroke-linejoin="miter" stroke="rgb(0%, 0%, 0%)" stroke-opacity="1" stroke-miterlimit="10" d="M 399.652344 300.027344 L 401.421875 290.519531 L 385.441406 286.859375 L 378.875 305.628906 L 393.652344 312.730469 L 398.195312 304.191406 L 399.652344 300.027344 "/>
<path fill-rule="evenodd" fill="rgb(100%, 55%, 0%)" fill-opacity="1" stroke-width="0.5" stroke-linecap="butt" stroke-linejoin="miter" stroke="rgb(0%, 0%, 0%)" stroke-opacity="1" stroke-miterlimit="10" d="M 384.769531 332.074219 L 388.609375 323.199219 L 373.84375 316.074219 L 363.265625 332.910156 L 376.089844 343.121094 L 382.421875 335.8125 L 384.769531 332.074219 "/>
<path fill-rule="evenodd" fill="rgb(100%, 55%, 0%)" fill-opacity="1" stroke-width="0.5" stroke-linecap="butt" stroke-linejoin="miter" stroke="rgb(0%, 0%, 0%)" stroke-opacity="1" stroke-miterlimit="10" d="M 363.125 360.007812 L 368.84375 352.207031 L 356.035156 341.976562 L 341.976562 356.035156 L 352.207031 368.84375 L 360.007812 363.125 L 363.125 360.007812 "/>
<path fill-rule="evenodd" fill="rgb(100%, 55%, 0%)" fill-opacity="1" stroke-width="0.5" stroke-linecap="butt" stroke-linejoin="miter" stroke="rgb(0%, 0%, 0%)" stroke-opacity="1" stroke-miterlimit="10" d="M 335.8125 382.421875 L 343.121094 376.089844 L 332.910156 363.265625 L 316.074219 373.84375 L 323.199219 388.609375 L 332.074219 384.769531 L 335.8125 382.421875 "/>
<path fill-rule="evenodd" fill="rgb(100%, 55%, 0%)" fill-opacity="1" stroke-width="0.5" stroke-linecap="butt" stroke-linejoin="miter" stroke="rgb(0%, 0%, 0%)" stroke-opacity="1" stroke-miterlimit="10" d="M 304.191406 398.195312 L 312.730469 393.652344 L 305.628906 378.875 L 286.859375 385.441406 L 290.519531 401.421875 L 300.027344 399.652344 L 304.191406 398.195312 "/>
<path fill-rule="evenodd" fill="rgb(100%, 55%, 0%)" fill-opacity="1" stroke-width="0.5" stroke-linecap="butt" stroke-linejoin="miter" stroke="rgb(0%, 0%, 0%)" stroke-opacity="1" stroke-miterlimit="10" d="M 269.859375 406.539062 L 279.191406 404.007812 L 275.554688 388.019531 L 255.796875 390.246094 L 255.808594 406.644531 L 265.472656 407.035156 L 269.859375 406.539062 "/>
<path fill-rule="evenodd" fill="rgb(100%, 55%, 0%)" fill-opacity="1" stroke-width="0.5" stroke-linecap="butt" stroke-linejoin="miter" stroke="rgb(0%, 0%, 0%)" stroke-opacity="1" stroke-miterlimit="10" d="M 234.527344 407.035156 L 244.191406 406.644531 L 244.203125 390.246094 L 224.445312 388.019531 L 220.808594 404.007812 L 230.140625 406.539062 L 234.527344 407.035156 "/>
<path fill-rule="evenodd" fill="rgb(100%, 55%, 0%)" fill-opacity="1" stroke-width="0.5" stroke-linecap="butt" stroke-linejoin="miter" stroke="rgb(0%, 0%, 0%)" stroke-opacity="1" stroke-miterlimit="10" d="M 199.972656 399.652344 L 209.480469 401.421875 L 213.140625 385.441406 L 194.371094 378.875 L 187.269531 393.652344 L 195.808594 398.195312 L 199.972656 399.652344 "/>
<path fill-rule="evenodd" fill="rgb(100%, 55%, 0%)" fill-opacity="1" stroke-width="0.5" stroke-linecap="butt" stroke-linejoin="miter" stroke="rgb(0%, 0%, 0%)" stroke-opacity="1" stroke-miterlimit="10" d="M 167.925781 384.769531 L 176.800781 388.609375 L 183.925781 373.84375 L 167.089844 363.265625 L 156.878906 376.089844 L 164.1875 382.421875 L 167.925781 384.769531 "/>
<path fill-rule="evenodd" fill="rgb(100%, 55%, 0%)" fill-opacity="1" stroke-width="0.5" stroke-linecap="butt" stroke-linejoin="miter" stroke="rgb(0%, 0%, 0%)" stroke-opacity="1" stroke-miterlimit="10" d="M 139.992188 363.125 L 147.792969 368.84375 L 158.023438 356.035156 L 143.964844 341.976562 L 131.15625 352.207031 L 136.875 360.007812 L 139.992188 363.125 "/>
<path fill-rule="evenodd" fill="rgb(100%, 55%, 0%)" fill-opacity="1" stroke-width="0.5" stroke-linecap="butt" stroke-linejoin="miter" stroke="rgb(0%, 0%, 0%)" stroke-opacity="1" stroke-miterlimit="10" d="M 117.578125 335.8125 L 123.910156 343.121094 L 136.734375 332.910156 L 126.15625 316.074219 L 111.390625 323.199219 L 115.230469 332.074219 L 117.578125 335.8125 "/>
<path fill-rule="evenodd" fill="rgb(100%, 55%, 0%)" fill-opacity="1" stroke-width="0.5" stroke-linecap="butt" stroke-linejoin="miter" stroke="rgb(0%, 0%, 0%)" stroke-opacity="1" stroke-miterlimit="10" d="M 101.804688 304.191406 L 106.347656 312.730469 L 121.125 305.628906 L 114.558594 286.859375 L 98.578125 290.519531 L 100.347656 300.027344 L 101.804688 304.191406 "/>
<path fill-rule="evenodd" fill="rgb(100%, 55%, 0%)" fill-opacity="1" stroke-width="0.5" stroke-linecap="butt" stroke-linejoin="miter" stroke="rgb(0%, 0%, 0%)" stroke-opacity="1" stroke-miterlimit="10" d="M 93.460938 269.859375 L 95.992188 279.191406 L 111.980469 275.554688 L 109.753906 255.796875 L 93.355469 255.808594 L 92.964844 265.472656 L 93.460938 269.859375 "/>
<path fill-rule="evenodd" fill="rgb(100%, 55%, 0%)" fill-opacity="1" stroke-width="0.5" stroke-linecap="butt" stroke-linejoin="miter" stroke="rgb(0%, 0%, 0%)" stroke-opacity="1" stroke-miterlimit="10" d="M 92.964844 234.527344 L 93.355469 244.191406 L 109.753906 244.203125 L 111.980469 224.445312 L 95.992188 220.808594 L 93.460938 230.140625 L 92.964844 234.527344 "/>
<path fill-rule="evenodd" fill="rgb(100%, 55%, 0%)" fill-opacity="1" stroke-width="0.5" stroke-linecap="butt" stroke-linejoin="miter" stroke="rgb(0%, 0%, 0%)" stroke-opacity="1" stroke-miterlimit="10" d="M 100.347656 199.972656 L 98.578125 209.480469 L 114.558594 213.140625 L 121.125 194.371094 L 106.347656 187.269531 L 101.804688 195.808594 L 100.347656 199.972656 "/>
<path fill-rule="evenodd" fill="rgb(100%, 55%, 0%)" fill-opacity="1" stroke-width="0.5" stroke-linecap="butt" stroke-linejoin="miter" stroke="rgb(0%, 0%, 0%)" stroke-opacity="1" stroke-miterlimit="10" d="M 115.230469 167.925781 L 111.390625 176.800781 L 126.15625 183.925781 L 136.734375 167.089844 L 123.910156 156.878906 L 117.578125 164.1875 L 115.230469 167.925781 "/>
<path fill-rule="evenodd" fill="rgb(100%, 55%, 0%)" fill-opacity="1" stroke-width="0.5" stroke-linecap="butt" stroke-linejoin="miter" stroke="rgb(0%, 0%, 0%)" stroke-opacity="1" stroke-miterlimit="10" d="M 136.875 139.992188 L 131.15625 147.792969 L 143.964844 158.023438 L 158.023438 143.964844 L 147.792969 131.15625 L 139.992188 136.875 L 136.875 139.992188 "/>
<path fill-rule="evenodd" fill="rgb(100%, 55%, 0%)" fill-opacity="1" stroke-width="0.5" stroke-linecap="butt" stroke-linejoin="miter" stroke="rgb(0%, 0%, 0%)" stroke-opacity="1" stroke-miterlimit="10" d="M 164.1875 117.578125 L 156.878906 123.910156 L 167.089844 136.734375 L 183.925781 126.15625 L 176.800781 111.390625 L 167.925781 115.230469 L 164.1875 117.578125 "/>
<path fill-rule="evenodd" fill="rgb(100%, 55%, 0%)" fill-opacity="1" stroke-width="0.5" stroke-linecap="butt" stroke-linejoin="miter" stroke="rgb(0%, 0%, 0%)" stroke-opacity="1" stroke-miterlimit="10" d="M 195.808594 101.804688 L 187.269531 106.347656 L 194.371094 121.125 L 213.140625 114.558594 L 209.480469 98.578125 L 199.972656 100.347656 L 195.808594 101.804688 "/>
<path fill-rule="evenodd" fill="rgb(100%, 55%, 0%)" fill-opacity="1" stroke-width="0.5" stroke-linecap="butt" stroke-linejoin="miter" stroke="rgb(0%, 0%, 0%)" stroke-opacity="1" stroke-miterlimit="10" d="M 230.140625 93.460938 L 220.808594 95.992188 L 224.445312 111.980469 L 244.203125 109.753906 L 244.191406 93.355469 L 234.527344 92.964844 L 230.140625 93.460938 "/>
<path fill-rule="evenodd" fill="rgb(100%, 55%, 0%)" fill-opacity="1" stroke-width="0.5" stroke-linecap="butt" stroke-linejoin="miter" stroke="rgb(0%, 0%, 0%)" stroke-opacity="1" stroke-miterlimit="10" d="M 265.472656 92.964844 L 255.808594 93.355469 L 255.796875 109.753906 L 275.554688 111.980469 L 279.191406 95.992188 L 269.859375 93.460938 L 265.472656 92.964844 "/>
<path fill-rule="evenodd" fill="rgb(100%, 55%, 0%)" fill-opacity="1" stroke-width="0.5" stroke-linecap="butt" stroke-linejoin="miter" stroke="rgb(0%, 0%, 0%)" stroke-opacity="1" stroke-miterlimit="10" d="M 300.027344 100.347656 L 290.519531 98.578125 L 286.859375 114.558594 L 305.628906 121.125 L 312.730469 106.347656 L 304.191406 101.804688 L 300.027344 100.347656 "/>
<path fill-rule="evenodd" fill="rgb(100%, 55%, 0%)" fill-opacity="1" stroke-width="0.5" stroke-linecap="butt" stroke-linejoin="miter" stroke="rgb(0%, 0%, 0%)" stroke-opacity="1" stroke-miterlimit="10" d="M 332.074219 115.230469 L 323.199219 111.390625 L 316.074219 126.15625 L 332.910156 136.734375 L 343.121094 123.910156 L 335.8125 117.578125 L 332.074219 115.230469 "/>
<path fill-rule="evenodd" fill="rgb(100%, 55%, 0%)" fill-opacity="1" stroke-width="0.5" stroke-linecap="butt" stroke-linejoin="miter" stroke="rgb(0%, 0%, 0%)" stroke-opacity="1" stroke-miterlimit="10" d="M 360.007812 136.875 L 352.207031 131.15625 L 341.976562 143.964844 L 356.035156 158.023438 L 368.84375 147.792969 L 363.125 139.992188 L 360.007812 136.875 "/>
<path fill-rule="evenodd" fill="rgb(100%, 55%, 0%)" fill-opacity="1" stroke-width="0.5" stroke-linecap="butt" stroke-linejoin="miter" stroke="rgb(0%, 0%, 0%)" stroke-opacity="1" stroke-miterlimit="10" d="M 382.421875 164.1875 L 376.089844 156.878906 L 363.265625 167.089844 L 373.84375 183.925781 L 388.609375 176.800781 L 384.769531 167.925781 L 382.421875 164.1875 "/>
<path fill-rule="evenodd" fill="rgb(100%, 55%, 0%)" fill-opacity="1" stroke-width="0.5" stroke-linecap="butt" stroke-linejoin="miter" stroke="rgb(0%, 0%, 0%)" stroke-opacity="1" stroke-miterlimit="10" d="M 398.195312 195.808594 L 393.652344 187.269531 L 378.875 194.371094 L 385.441406 213.140625 L 401.421875 209.480469 L 399.652344 199.972656 L 398.195312 195.808594 "/>
<path fill-rule="evenodd" fill="rgb(100%, 55%, 0%)" fill-opacity="1" stroke-width="0.5" stroke-linecap="butt" stroke-linejoin="miter" stroke="rgb(0%, 0%, 0%)" stroke-opacity="1" stroke-miterlimit="10" d="M 406.539062 230.140625 L 404.007812 220.808594 L 388.019531 224.445312 L 390.246094 244.203125 L 406.644531 244.191406 L 407.035156 234.527344 L 406.539062 230.140625 "/>
<path fill-rule="evenodd" fill="rgb(0%, 50%, 0%)" fill-opacity="1" stroke-width="0.5" stroke-linecap="butt" stroke-linejoin="miter" stroke="rgb(0%, 0%, 0%)" stroke-opacity="1" stroke-miterlimit="10" d="M 372.335938 274.605469 L 372.335938 289.3125 L 313.511719 289.3125 L 313.511719 274.605469 L 372.335938 274.605469 "/>
<path fill-rule="evenodd" fill="rgb(100%, 0%, 0%)" fill-opacity="1" stroke-width="0.5" stroke-linecap="butt" stroke-linejoin="miter" stroke="rgb(0%, 0%, 0%)" stroke-opacity="1" stroke-miterlimit="10" d="M 372.335938 289.3125 L 372.335938 304.015625 L 313.511719 304.015625 L 313.511719 289.3125 L 372.335938 289.3125 "/>
<path fill-rule="evenodd" fill="rgb(100%, 0%, 0%)" fill-opacity="1" stroke-width="0.5" stroke-linecap="butt" stroke-linejoin="miter" stroke="rgb(0%, 0%, 0%)" stroke-opacity="1" stroke-miterlimit="10" d="M 225.394531 372.335938 L 210.6875 372.335938 L 210.6875 313.511719 L 225.394531 313.511719 L 225.394531 372.335938 "/>
<path fill-rule="evenodd" fill="rgb(0%, 50%, 0%)" fill-opacity="1" stroke-width="0.5" stroke-linecap="butt" stroke-linejoin="miter" stroke="rgb(0%, 0%, 0%)" stroke-opacity="1" stroke-miterlimit="10" d="M 210.6875 372.335938 L 195.984375 372.335938 L 195.984375 313.511719 L 210.6875 313.511719 L 210.6875 372.335938 "/>
<path fill-rule="evenodd" fill="rgb(0%, 50%, 0%)" fill-opacity="1" stroke-width="0.5" stroke-linecap="butt" stroke-linejoin="miter" stroke="rgb(0%, 0%, 0%)" stroke-opacity="1" stroke-miterlimit="10" d="M 127.664062 225.394531 L 127.664062 210.6875 L 186.488281 210.6875 L 186.488281 225.394531 L 127.664062 225.394531 "/>
<path fill-rule="evenodd" fill="rgb(100%, 0%, 0%)" fill-opacity="1" stroke-width="0.5" stroke-linecap="butt" stroke-linejoin="miter" stroke="rgb(0%, 0%, 0%)" stroke-opacity="1" stroke-miterlimit="10" d="M 127.664062 210.6875 L 127.664062 195.984375 L 186.488281 195.984375 L 186.488281 210.6875 L 127.664062 210.6875 "/>
<path fill-rule="evenodd" fill="rgb(100%, 0%, 0%)" fill-opacity="1" stroke-width="0.5" stroke-linecap="butt" stroke-linejoin="miter" stroke="rgb(0%, 0%, 0%)" stroke-opacity="1" stroke-miterlimit="10" d="M 274.605469 127.664062 L 289.3125 127.664062 L 289.3125 186.488281 L 274.605469 186.488281 L 274.605469 127.664062 "/>
<path fill-rule="evenodd" fill="rgb(0%, 50%, 0%)" fill-opacity="1" stroke-width="0.5" stroke-linecap="butt" stroke-linejoin="miter" stroke="rgb(0%, 0%, 0%)" stroke-opacity="1" stroke-miterlimit="10" d="M 289.3125 127.664062 L 304.015625 127.664062 L 304.015625 186.488281 L 289.3125 186.488281 L 289.3125 127.664062 "/>
<path fill-rule="evenodd" fill="rgb(0%, 50%, 0%)" fill-opacity="1" stroke-width="0.5" stroke-linecap="butt" stroke-linejoin="miter" stroke="rgb(0%, 0%, 0%)" stroke-opacity="1" stroke-miterlimit="10" d="M 274.605469 313.511719 L 289.3125 313.511719 L 289.3125 372.335938 L 274.605469 372.335938 L 274.605469 313.511719 "/>
<path fill-rule="evenodd" fill="rgb(100%, 0%, 0%)" fill-opacity="1" stroke-width="0.5" stroke-linecap="butt" stroke-linejoin="miter" stroke="rgb(0%, 0%, 0%)" stroke-opacity="1" stroke-miterlimit="10" d="M 289.3125 313.511719 L 304.015625 313.511719 L 304.015625 372.335938 L 289.3125 372.335938 L 289.3125 313.511719 "/>
<path fill-rule="evenodd" fill="rgb(100%, 0%, 0%)" fill-opacity="1" stroke-width="0.5" stroke-linecap="butt" stroke-linejoin="miter" stroke="rgb(0%, 0%, 0%)" stroke-opacity="1" stroke-miterlimit="10" d="M 186.488281 274.605469 L 186.488281 289.3125 L 127.664062 289.3125 L 127.664062 274.605469 L 186.488281 274.605469 "/>
<path fill-rule="evenodd" fill="rgb(0%, 50%, 0%)" fill-opacity="1" stroke-width="0.5" stroke-linecap="butt" stroke-linejoin="miter" stroke="rgb(0%, 0%, 0%)" stroke-opacity="1" stroke-miterlimit="10" d="M 186.488281 289.3125 L 186.488281 304.015625 L 127.664062 304.015625 L 127.664062 289.3125 L 186.488281 289.3125 "/>
<path fill-rule="evenodd" fill="rgb(0%, 50%, 0%)" fill-opacity="1" stroke-width="0.5" stroke-linecap="butt" stroke-linejoin="miter" stroke="rgb(0%, 0%, 0%)" stroke-opacity="1" stroke-miterlimit="10" d="M 225.394531 186.488281 L 210.6875 186.488281 L 210.6875 127.664062 L 225.394531 127.664062 L 225.394531 186.488281 "/>
<path fill-rule="evenodd" fill="rgb(100%, 0%, 0%)" fill-opacity="1" stroke-width="0.5" stroke-linecap="butt" stroke-linejoin="miter" stroke="rgb(0%, 0%, 0%)" stroke-opacity="1" stroke-miterlimit="10" d="M 210.6875 186.488281 L 195.984375 186.488281 L 195.984375 127.664062 L 210.6875 127.664062 L 210.6875 186.488281 "/>
<path fill-rule="evenodd" fill="rgb(100%, 0%, 0%)" fill-opacity="1" stroke-width="0.5" stroke-linecap="butt" stroke-linejoin="miter" stroke="rgb(0%, 0%, 0%)" stroke-opacity="1" stroke-miterlimit="10" d="M 313.511719 225.394531 L 313.511719 210.6875 L 372.335938 210.6875 L 372.335938 225.394531 L 313.511719 225.394531 "/>
<path fill-rule="evenodd" fill="rgb(0%, 50%, 0%)" fill-opacity="1" stroke-width="0.5" stroke-linecap="butt" stroke-linejoin="miter" stroke="rgb(0%, 0%, 0%)" stroke-opacity="1" stroke-miterlimit="10" d="M 313.511719 210.6875 L 313.511719 195.984375 L 372.335938 195.984375 L 372.335938 210.6875 L 313.511719 210.6875 "/>
</svg>
